<svg xmlns="http://www.w3.org/2000/svg">
<defs>
<font id="Tigers202105" horiz-adv-x="2522"><font-face font-family="tigers" font-weight="400" font-stretch="normal" units-per-em="2048" panose-1="2 0 5 6 0 0 0 2 0 4" ascent="2444" descent="-591" x-height="4" bbox="-12 -384 2218 1810" underline-thickness="102" underline-position="-154" unicode-range="U+0026-f265" /><missing-glyph horiz-adv-x="1344" d="M512 -18 q-92 0 -163.5 31.5 q-71.5 31.5 -120.5 85.5 q-49 54 -74.5 127.5 q-25.5 73.5 -25.5 157.5 q0 62 15 128 q15 66 46.5 132 q31.5 66 80 130 q48.5 64 114.5 122 q-30 61 -64 128 q-34 67 -62.5 133.5 q-28.5 66.5 -47 130.5 q-18.5 64 -18.5 120 q0 83 26 156 q26 73 75 128 q49 55 120.5 86.5 q71.5 31.5 162.5 31.5 q79 0 149 -24.5 q70 -24.5 122.5 -68.5 q52.5 -44 82.5 -106.5 q30 -62.5 30 -138.5 q0 -47 -14 -98 q-14 -51 -38 -103 q-24 -52 -55.5 -104 q-31.5 -52 -67 -100.5 q-35.5 -48.5 -73 -92 q-37.5 -43.5 -72.5 -78.5 l256 -384 q20 45 35 123.5 q15 78.5 29 196.5 l256 0 q0 -49 -14.5 -115 q-14.5 -66 -38 -133.5 q-23.5 -67.5 -51.5 -130 q-28 -62.5 -55 -103.5 q10 -13 27 -29.5 q17 -16.5 38.5 -30.5 q21.5 -14 45.5 -24 q24 -10 48 -10 l0 -274 q-48 0 -90.5 14.5 q-42.5 14.5 -81.5 38.5 q-39 24 -75.5 55.5 q-36.5 31.5 -72.5 66.5 q-33 -42 -76 -75 q-43 -33 -92.5 -55 q-49.5 -22 -104 -33.5 q-54.5 -11.5 -111.5 -11.5 ZM545 1024 q16 20 34 52.5 q18 32.5 36 71.5 q18 39 34 83 q16 44 28 87 q12 43 19.5 82.5 q7.5 39.5 7.5 71.5 q0 57 -34 92.5 q-34 35.5 -94 35.5 q-32 0 -56 -16 q-24 -16 -40 -42.5 q-16 -26.5 -24 -61.5 q-8 -35 -8 -72 q0 -35 8.5 -82.5 q8.5 -47.5 22 -100 q13.5 -52.5 31 -105 q17.5 -52.5 35.5 -96.5 ZM481 704 q-21 -28 -39 -66 q-18 -38 -30.5 -81 q-12.5 -43 -20 -87.5 q-7.5 -44.5 -7.5 -85.5 q0 -39 7 -73.5 q7 -34.5 22 -61 q15 -26.5 39.5 -42 q24.5 -15.5 59.5 -15.5 q39 0 72.5 12.5 q33.5 12.5 62 31.5 q28.5 19 51 41.5 q22.5 22.5 38.5 42.5 l-123 183 q-23 35 -45.5 69 q-22.5 34 -41.5 62 q-19 28 -31 46.5 q-12 18.5 -14 23.5 Z" /><glyph glyph-name="comma" unicode="," d="M76 256 l256 0 q0 -144 -3 -242 q-3 -98 -21 -158 q-18 -60 -57 -86 q-39 -26 -111 -26 l-64 128 q48 0 74 13.5 q26 13.5 38 33.5 q12 20 14 42 q2 22 2 39 l-128 0 l0 256 Z" /><glyph glyph-name="period" unicode="." d="M64 256 l256 0 l0 -256 l-256 0 l0 256 Z" /><glyph glyph-name="slash" unicode="/" d="M575 1792 l257 0 l-576 -1792 l-256 0 l575 1792 Z" /><glyph glyph-name="zero" unicode="0" d="M576 -18 q-86 0 -167 29.5 q-81 29.5 -143.5 93.5 q-62.5 64 -100 164.5 q-37.5 100.5 -37.5 242.5 l0 768 q0 121 24.5 207 q24.5 86 63.5 145 q39 59 88 94 q49 35 99 54 q50 19 95.5 24.5 q45.5 5.5 77.5 5.5 q32 0 77.5 -5.5 q45.5 -5.5 95.5 -24.5 q50 -19 99 -54 q49 -35 88 -94 q39 -59 63.5 -145 q24.5 -86 24.5 -207 l0 -768 q0 -142 -37.5 -242.5 q-37.5 -100.5 -100 -164.5 q-62.5 -64 -143.5 -93.5 q-81 -29.5 -167 -29.5 ZM576 192 q42 0 73 16 q31 16 52 42 q21 26 34.5 60 q13.5 34 20.5 69.5 q7 35.5 9.5 70 q2.5 34.5 2.5 62.5 l0 768 q0 29 -1.5 64 q-1.5 35 -8 70.5 q-6.5 35.5 -18.5 69 q-12 33.5 -33.5 59.5 q-21.5 26 -53.5 41.5 q-32 15.5 -77 15.5 q-45 0 -77 -15.5 q-32 -15.5 -53.5 -41.5 q-21.5 -26 -33.5 -59.5 q-12 -33.5 -18.5 -69 q-6.5 -35.5 -8 -70.5 q-1.5 -35 -1.5 -64 l0 -768 q0 -28 2.5 -62.5 q2.5 -34.5 9.5 -70 q7 -35.5 20.5 -69.5 q13.5 -34 34.5 -60 q21 -26 52 -42 q31 -16 73 -16 Z" /><glyph glyph-name="one" unicode="1" d="M64 1600 q31 11 67.5 27.5 q36.5 16.5 72 40 q35.5 23.5 66 54.5 q30.5 31 50.5 70 l192 0 l0 -1792 l-256 0 l0 1408 l-192 0 l0 192 Z" /><glyph glyph-name="two" unicode="2" d="M97 1216 l0 64 q0 120 25 218 q25 98 79 167 q54 69 139 107 q85 38 205 38 q120 0 205 -37 q85 -37 139 -100 q54 -63 79 -148 q25 -85 25 -181 q0 -72 -11.5 -135 q-11.5 -63 -35.5 -123.5 q-24 -60.5 -60 -122 q-36 -61.5 -85 -131.5 l-448 -576 l640 0 l0 -256 l-897 0 l0 256 l449 640 q68 97 106.5 166 q38.5 69 57.5 120.5 q19 51.5 23.5 89.5 q4.5 38 4.5 72 q0 48 -12 94 q-12 46 -36 82 q-24 36 -60 58 q-36 22 -84 22 q-48 0 -84 -23 q-36 -23 -60 -65 q-24 -42 -36 -101 q-12 -59 -12 -131 l0 -64 l-256 0 Z" /><glyph glyph-name="three" unicode="3" d="M544 -18 q-120 0 -205 37 q-85 37 -139 100 q-54 63 -79 148 q-25 85 -25 181 l0 64 l256 0 q0 -96 12 -158 q12 -62 36 -98 q24 -36 60 -50 q36 -14 84 -14 q48 0 84 14 q36 14 60 50 q24 36 36 98 q12 62 12 158 q0 72 -13 131 q-13 59 -43 101 q-30 42 -79 65 q-49 23 -121 23 l0 256 q72 0 121 13 q49 13 79 43 q30 30 43 79 q13 49 13 121 q0 72 -12 121 q-12 49 -36 79 q-24 30 -60 43 q-36 13 -84 13 q-48 0 -84 -14 q-36 -14 -60 -50 q-24 -36 -36 -98 q-12 -62 -12 -158 l-256 0 l0 64 q0 96 25 181 q25 85 79 148 q54 63 139 100 q85 37 205 37 q120 0 205 -37 q85 -37 139 -100 q54 -63 79 -148 q25 -85 25 -181 q0 -96 -25.5 -163.5 q-25.5 -67.5 -64 -112.5 q-38.5 -45 -83 -70.5 q-44.5 -25.5 -83.5 -37.5 q39 -13 83.5 -41.5 q44.5 -28.5 83 -80 q38.5 -51.5 64 -131.5 q25.5 -80 25.5 -195 q0 -120 -25 -218 q-25 -98 -79 -167 q-54 -69 -139 -107 q-85 -38 -205 -38 Z" /><glyph glyph-name="four" unicode="4" d="M608 460 l-512 0 l0 285 l448 1048 l320 0 l0 -1091 l198 0 l0 -242 l-198 0 l0 -460 l-256 0 l0 460 ZM608 702 l0 770 l-256 -770 l256 0 Z" /><glyph glyph-name="five" unicode="5" d="M960 1536 l-560 0 l-16 -434 q17 10 40.5 21.5 q23.5 11.5 55 21 q31.5 9.5 71.5 15.5 q40 6 89 6 q107 0 180.5 -38.5 q73.5 -38.5 118.5 -108.5 q45 -70 65 -166.5 q20 -96.5 20 -212.5 q0 -73 -6 -150 q-6 -77 -23 -150 q-17 -73 -48 -138.5 q-31 -65.5 -81.5 -114 q-50.5 -48.5 -123 -77 q-72.5 -28.5 -171.5 -28.5 q-136 0 -222 42 q-86 42 -135 114 q-49 72 -67.5 168.5 q-18.5 96.5 -18.5 205.5 l256 0 l0 -40 q0 -52 5 -103 q5 -51 22.5 -91.5 q17.5 -40.5 52 -66 q34.5 -25.5 93.5 -25.5 q72 0 113.5 29.5 q41.5 29.5 63.5 89 q22 59.5 28 148 q6 88.5 6 205.5 q0 66 -4.5 123.5 q-4.5 57.5 -23 100.5 q-18.5 43 -57 67.5 q-38.5 24.5 -106.5 24.5 q-36 0 -67 -14.5 q-31 -14.5 -55.5 -36.5 q-24.5 -22 -42 -48 q-17.5 -26 -26.5 -49 l-218 0 l0 966 l792 0 l0 -256 Z" /><glyph glyph-name="six" unicode="6" d="M576 -18 q-96 0 -178 39 q-82 39 -142 114 q-60 75 -94 186 q-34 111 -34 255 l0 576 q0 144 25 265 q25 121 79 208 q54 87 139 136 q85 49 205 49 q96 0 178 -28 q82 -28 142 -85 q60 -57 94 -145 q34 -88 34 -208 l-256 0 q0 72 -11.5 121 q-11.5 49 -35.5 79 q-24 30 -60 43 q-36 13 -85 13 q-192 0 -192 -384 l0 -256 q11 19 30.5 41.5 q19.5 22.5 50.5 42 q31 19.5 74 32 q43 12.5 101 12.5 q120 0 195 -44 q75 -44 117 -116 q42 -72 57 -164 q15 -92 15 -188 q0 -120 -25 -228 q-25 -108 -79 -189 q-54 -81 -139 -129 q-85 -48 -205 -48 ZM384 512 q0 -72 12 -131 q12 -59 36 -101 q24 -42 60 -65 q36 -23 84 -23 q48 0 84 23 q36 23 60 65 q24 42 36 101 q12 59 12 131 q0 72 -3 141 q-3 69 -21 123 q-18 54 -57 87 q-39 33 -111 33 q-39 0 -69.5 -12.5 q-30.5 -12.5 -54.5 -32 q-24 -19.5 -41 -42 q-17 -22.5 -27 -41.5 l0 -256 Z" /><glyph glyph-name="seven" unicode="7" d="M64 1792 l717 0 l0 -123 l-326 -1669 l-246 0 l328 1579 l-473 0 l0 213 Z" /><glyph glyph-name="eight" unicode="8" d="M545 1600 q-51 0 -82.5 -23 q-31.5 -23 -49 -59.5 q-17.5 -36.5 -24 -82 q-6.5 -45.5 -6.5 -91.5 q0 -48 5 -98 q5 -50 22 -90.5 q17 -40.5 49 -66.5 q32 -26 86 -26 q54 0 85.5 26 q31.5 26 48 66.5 q16.5 40.5 21.5 90.5 q5 50 5 98 q0 46 -6.5 91.5 q-6.5 45.5 -24 82 q-17.5 36.5 -49 59.5 q-31.5 23 -80.5 23 ZM545 1810 q106 0 185.5 -32.5 q79.5 -32.5 131.5 -93 q52 -60.5 78 -146.5 q26 -86 26 -194 q0 -59 -6.5 -114 q-6.5 -55 -25 -105 q-18.5 -50 -51 -95 q-32.5 -45 -84.5 -84 q45 -30 80.5 -65 q35.5 -35 60.5 -84.5 q25 -49.5 38.5 -119 q13.5 -69.5 13.5 -166.5 q0 -120 -23 -217.5 q-23 -97.5 -76 -166.5 q-53 -69 -138.5 -107 q-85.5 -38 -209.5 -38 q-125 0 -210.5 38 q-85.5 38 -138.5 107 q-53 69 -76.5 166.5 q-23.5 97.5 -23.5 217.5 q0 97 13.5 166 q13.5 69 38.5 119.5 q25 50.5 61 85.5 q36 35 81 64 q-52 39 -84.5 83.5 q-32.5 44.5 -51 95 q-18.5 50.5 -25.5 105.5 q-7 55 -7 114 q0 108 26 194 q26 86 78.5 146.5 q52.5 60.5 132 93 q79.5 32.5 186.5 32.5 ZM545 192 q72 0 110.5 32 q38.5 32 56.5 80 q18 48 21 103.5 q3 55.5 3 103.5 q0 47 -6 101 q-6 54 -25.5 99.5 q-19.5 45.5 -57.5 76 q-38 30.5 -102 30.5 q-65 0 -103 -30.5 q-38 -30.5 -58 -76 q-20 -45.5 -26 -99.5 q-6 -54 -6 -101 q0 -48 3 -103.5 q3 -55.5 21 -103.5 q18 -48 57.5 -80 q39.5 -32 111.5 -32 Z" /><glyph glyph-name="nine" unicode="9" d="M576 1810 q96 0 178 -39 q82 -39 142 -114 q60 -75 94 -186 q34 -111 34 -255 l0 -576 q0 -144 -25 -265 q-25 -121 -79 -208 q-54 -87 -139 -136 q-85 -49 -205 -49 q-96 0 -178 28 q-82 28 -142 85 q-60 57 -94 145 q-34 88 -34 208 l256 0 q0 -72 11.5 -121 q11.5 -49 35.5 -79 q24 -30 60 -43 q36 -13 85 -13 q192 0 192 384 l0 256 q-12 -20 -31.5 -42 q-19.5 -22 -50.5 -41.5 q-31 -19.5 -73.5 -32 q-42.5 -12.5 -100.5 -12.5 q-120 0 -195 44 q-75 44 -117 116 q-42 72 -57 164 q-15 92 -15 188 q0 120 25 228 q25 108 79 189 q54 81 139 129 q85 48 205 48 ZM768 1280 q0 72 -12 131 q-12 59 -36 101 q-24 42 -60 65 q-36 23 -84 23 q-48 0 -84 -23 q-36 -23 -60 -65 q-24 -42 -36 -101 q-12 -59 -12 -131 q0 -72 3 -141 q3 -69 21 -123 q18 -54 57 -87 q39 -33 111 -33 q38 0 69 12.5 q31 12.5 54.5 31.5 q23.5 19 40.5 41.5 q17 22.5 28 42.5 l0 256 Z" /><glyph glyph-name="colon" unicode=":" d="M128 1088 l256 0 l0 -256 l-256 0 l0 256 ZM128 512 l256 0 l0 -256 l-256 0 l0 256 Z" /><glyph glyph-name="semicolon" unicode=";" d="M64 1088 l256 0 l0 -256 l-256 0 l0 256 ZM64 512 l256 0 q0 -144 -3 -242 q-3 -98 -21 -158 q-18 -60 -57 -86 q-39 -26 -111 -26 l-64 128 q48 0 74 13.5 q26 13.5 38 33.5 q12 20 14 42 q2 22 2 39 l-128 0 l0 256 Z" /><glyph glyph-name="question" unicode="?" d="M384 384 l0 320 q120 72 195 143 q75 71 117 137 q42 66 57 125 q15 59 15 107 q0 192 -192 192 q-48 0 -84 -13 q-36 -13 -60 -43 q-24 -30 -36 -79 q-12 -49 -12 -121 l-256 0 l0 64 q0 120 34 205 q34 85 94 139 q60 54 142 79 q82 25 178 25 q120 0 205.5 -34 q85.5 -34 139.5 -94 q54 -60 79 -142 q25 -82 25 -178 q0 -194 -95 -338 q-95 -144 -290 -238 l0 -256 l-256 0 ZM384 256 l256 0 l0 -256 l-256 0 l0 256 Z" /><glyph glyph-name="A" unicode="a" d="M410 448 l-96 -448 l-256 0 l384 1792 l256 0 l384 -1792 l-256 0 l-96 448 l-320 0 ZM698 640 l-128 768 l-128 -768 l256 0 Z" /><glyph glyph-name="B" unicode="b" d="M512 1792 q112 0 196 -20 q84 -20 144.5 -53.5 q60.5 -33.5 100.5 -78.5 q40 -45 63 -94.5 q23 -49.5 32.5 -101.5 q9.5 -52 9.5 -100 q0 -72 -12.5 -132 q-12.5 -60 -45.5 -108 q-33 -48 -89 -84 q-56 -36 -143 -60 q72 -24 131 -58 q59 -34 101 -85.5 q42 -51.5 65 -125.5 q23 -74 23 -179 q0 -113 -35 -207 q-35 -94 -101 -161.5 q-66 -67.5 -161 -105.5 q-95 -38 -215 -38 l-448 0 l0 1792 l384 0 ZM384 192 l128 0 q72 0 131 14 q59 14 101 50 q42 36 65 98 q23 62 23 158 q0 96 -23 158 q-23 62 -65 98 q-42 36 -101 50 q-59 14 -131 14 l-128 0 l0 -640 ZM384 1024 l128 0 q32 0 68 4 q36 4 71.5 15.5 q35.5 11.5 68.5 33 q33 21.5 57.5 57 q24.5 35.5 39.5 87 q15 51.5 15 123.5 q0 96 -34 148 q-34 52 -94 76 q-60 24 -142 28 q-82 4 -178 4 l0 -576 Z" /><glyph glyph-name="C" unicode="c" d="M1120 640 l0 -64 q0 -120 -26 -228 q-26 -108 -86 -189 q-60 -81 -158 -129 q-98 -48 -242 -48 q-144 0 -242 49 q-98 49 -158 136.5 q-60 87.5 -86 208.5 q-26 121 -26 265 l0 511 q0 144 26 265 q26 121 86 208 q60 87 158 136 q98 49 242 49 q136 0 233.5 -43.5 q97.5 -43.5 159 -121.5 q61.5 -78 90.5 -187.5 q29 -109.5 29 -241.5 l-256 0 q0 96 -13 168 q-13 72 -43 120 q-30 48 -79 72 q-49 24 -121 24 q-72 0 -121 -24 q-49 -24 -79 -72 q-30 -48 -43 -120 q-13 -72 -13 -168 l0 -640 q0 -72 13 -141 q13 -69 43 -123 q30 -54 79 -87 q49 -33 121 -33 q72 0 121 33 q49 33 79 87 q30 54 43 123 q13 69 13 141 l0 64 l256 0 Z" /><glyph glyph-name="D" unicode="d" d="M128 0 l0 1792 l384 0 q144 0 242 -26 q98 -26 158 -86 q60 -60 86 -158 q26 -98 26 -242 l0 -704 q0 -144 -26 -252 q-26 -108 -86 -180 q-60 -72 -158.5 -108 q-98.5 -36 -243.5 -36 l-382 0 ZM512 192 q96 0 148 25 q52 25 76 79 q24 54 28 139 q4 85 4 205 l0 576 q0 96 -4 168 q-4 72 -28.5 120 q-24.5 48 -77.5 72 q-53 24 -151 24 l-123 0 l0 -1408 l128 0 Z" /><glyph glyph-name="E" unicode="e" d="M704 832 l-320 0 l0 -640 l448 0 l0 -192 l-704 0 l0 1792 l704 0 l0 -192 l-448 0 l0 -576 l320 0 l0 -192 Z" /><glyph glyph-name="F" unicode="f" d="M832 1600 l-448 0 l0 -576 l320 0 l0 -192 l-320 0 l0 -832 l-256 0 l0 1792 l704 0 l0 -192 Z" /><glyph glyph-name="G" unicode="g" d="M864 1216 q0 96 -13 168 q-13 72 -43 120 q-30 48 -79 72 q-49 24 -121 24 q-72 0 -121 -24 q-49 -24 -79 -72 q-30 -48 -43 -120 q-13 -72 -13 -168 l0 -576 q0 -144 22 -232 q22 -88 58 -136 q36 -48 82 -64 q46 -16 94 -16 q48 0 94 16 q46 16 82 64 q36 48 58 136 q22 88 22 232 l0 64 l-256 0 l0 192 l512 0 l0 -896 l-192 0 l-64 192 q-12 -33 -32 -69.5 q-20 -36.5 -50.5 -68 q-30.5 -31.5 -73.5 -52 q-43 -20.5 -100 -20.5 q-80 0 -149 13.5 q-69 13.5 -126 45.5 q-57 32 -101 85 q-44 53 -74.5 133 q-30.5 80 -46 188 q-15.5 108 -15.5 251 l0 454 q0 144 26 265 q26 121 86 208 q60 87 158 136 q98 49 242 49 q127 0 222.5 -39.5 q95.5 -39.5 160 -115 q64.5 -75.5 97 -186.5 q32.5 -111 32.5 -253 l-256 0 Z" /><glyph glyph-name="H" unicode="h" d="M832 832 l-448 0 l0 -832 l-256 0 l0 1792 l256 0 l0 -768 l448 0 l0 768 l256 0 l0 -1792 l-256 0 l0 832 Z" /><glyph glyph-name="I" unicode="i" d="M140 1792 l256 0 l0 -1792 l-256 0 l0 1792 Z" /><glyph glyph-name="J" unicode="j" d="M512 1792 l0 -1344 q0 -120 -15 -205 q-15 -85 -57 -139 q-42 -54 -117 -79 q-75 -25 -195 -25 l-128 0 l0 192 q72 0 121 4 q49 4 79 28 q30 24 43 76 q13 52 13 148 l0 1344 l256 0 Z" /><glyph glyph-name="K" unicode="k" d="M1152 0 l-320 0 l-320 832 l-128 -256 l0 -576 l-256 0 l0 1792 l256 0 l0 -768 l384 768 l320 0 l-385 -704 l449 -1088 Z" /><glyph glyph-name="L" unicode="l" d="M128 0 l0 1792 l256 0 l0 -1600 l448 0 l0 -192 l-704 0 Z" /><glyph glyph-name="M" unicode="m" d="M640 0 l-256 1414 l0 -1414 l-256 0 l0 1792 l354 0 l254 -1372 l254 1372 l354 0 l0 -1792 l-256 0 l0 1414 l-256 -1414 l-192 0 Z" /><glyph glyph-name="N" unicode="n" d="M842 0 l-458 1192 l0 -1192 l-256 0 l0 1792 l192 0 l448 -1108 l0 1108 l256 0 l0 -1792 l-182 0 Z" /><glyph glyph-name="O" unicode="o" d="M1120 576 q0 -120 -25 -228 q-25 -108 -84 -189 q-59 -81 -157.5 -129 q-98.5 -48 -245.5 -48 q-100 0 -177 22 q-77 22 -133.5 61 q-56.5 39 -95.5 94 q-39 55 -62.5 121 q-23.5 66 -33.5 141 q-10 75 -10 155 l0 640 q0 80 10 155 q10 75 33.5 141 q23.5 66 62.5 121 q39 55 95.5 94 q56.5 39 133.5 61 q77 22 177 22 q147 0 245.5 -48 q98.5 -48 157.5 -129 q59 -81 84 -189 q25 -108 25 -228 l0 -640 ZM352 512 q0 -72 13 -131 q13 -59 43 -101 q30 -42 79 -65 q49 -23 121 -23 q72 0 121 23 q49 23 79 65 q30 42 43 101 q13 59 13 131 l0 768 q0 72 -13 131 q-13 59 -43 101 q-30 42 -79 65 q-49 23 -121 23 q-72 0 -121 -23 q-49 -23 -79 -65 q-30 -42 -43 -101 q-13 -59 -13 -131 l0 -768 Z" /><glyph glyph-name="P" unicode="p" d="M576 1792 q120 0 205 -35 q85 -35 139 -101 q54 -66 79 -161 q25 -95 25 -215 q0 -120 -34 -205 q-34 -85 -94 -139 q-60 -54 -142 -79 q-82 -25 -178 -25 l-192 0 l0 -832 l-256 0 l0 1792 l448 0 ZM448 1024 q96 0 158 13 q62 13 98 43 q36 30 50 79 q14 49 14 121 q0 72 -5 131 q-5 59 -35 101 q-30 42 -95 65 q-65 23 -185 23 l-64 0 l0 -576 l64 0 Z" /><glyph glyph-name="Q" unicode="q" d="M1120 576 q0 -81 -10.5 -156 q-10.5 -75 -35 -141 q-24.5 -66 -64.5 -120.5 q-40 -54.5 -98 -94.5 q24 -24 60 -44 q36 -20 84 -20 l0 -192 q-47 0 -89 13.5 q-42 13.5 -80.5 37.5 q-38.5 24 -74.5 58.5 q-36 34.5 -71 76.5 q-62 -12 -133 -12 q-100 0 -177 22 q-77 22 -133.5 61 q-56.5 39 -95.5 94 q-39 55 -62.5 121 q-23.5 66 -33.5 141 q-10 75 -10 155 l0 640 q0 80 10 155 q10 75 33.5 141 q23.5 66 62.5 121 q39 55 95.5 94 q56.5 39 133.5 61 q77 22 177 22 q147 0 245.5 -48 q98.5 -48 157.5 -129 q59 -81 84 -189 q25 -108 25 -228 l0 -640 ZM352 512 q0 -72 13 -131 q13 -59 43 -101 q30 -42 79 -65 q49 -23 121 -23 q72 0 121 23 q49 23 79 65 q30 42 43 101 q13 59 13 131 l0 768 q0 72 -13 131 q-13 59 -43 101 q-30 42 -79 65 q-49 23 -121 23 q-72 0 -121 -23 q-49 -23 -79 -65 q-30 -42 -43 -101 q-13 -59 -13 -131 l0 -768 Z" /><glyph glyph-name="R" unicode="r" d="M834 0 l-258 832 l-192 0 l0 -832 l-256 0 l0 1792 l320 0 q168 0 279 -34.5 q111 -34.5 177 -97.5 q66 -63 93 -151.5 q27 -88.5 27 -196.5 q0 -107 -22.5 -180.5 q-22.5 -73.5 -56.5 -122 q-34 -48.5 -73 -75 q-39 -26.5 -72 -38.5 l288 -896 l-254 0 ZM384 1024 l64 0 q72 0 131 13.5 q59 13.5 101 46.5 q42 33 65 88.5 q23 55.5 23 139.5 q0 84 -23 139.5 q-23 55.5 -65 88.5 q-42 33 -101 46.5 q-59 13.5 -131 13.5 l-64 0 l0 -576 Z" /><glyph glyph-name="S" unicode="s" d="M608 -18 q-96 0 -169 22.5 q-73 22.5 -127 60 q-54 37.5 -91 85 q-37 47.5 -61 97.5 q-28 58 -44 124 q-16 66 -20 141 l256 64 q3 -60 14.5 -127.5 q11.5 -67.5 40 -124.5 q28.5 -57 77 -94.5 q48.5 -37.5 124.5 -37.5 q192 0 192 192 q0 48 -12 89.5 q-12 41.5 -36 80 q-24 38.5 -60 75 q-36 36.5 -84 75.5 l-320 256 q-50 39 -86 88.5 q-36 49.5 -60 104.5 q-24 55 -35.5 112 q-11.5 57 -11.5 113 q0 86 29 164.5 q29 78.5 85.5 138 q56.5 59.5 140.5 94.5 q84 35 194 35 q94 0 167 -20 q73 -20 127.5 -53 q54.5 -33 92 -75 q37.5 -42 61.5 -85 q28 -52 43.5 -110.5 q15.5 -58.5 20.5 -122.5 l-256 -64 q-3 49 -14.5 105 q-11.5 56 -40 104 q-28.5 48 -77 79.5 q-48.5 31.5 -124.5 31.5 q-51 0 -87.5 -15.5 q-36.5 -15.5 -59.5 -42.5 q-23 -27 -34 -62.5 q-11 -35.5 -11 -74.5 q0 -66 31.5 -133.5 q31.5 -67.5 96.5 -119.5 l320 -256 q61 -49 108.5 -107.5 q47.5 -58.5 80.5 -122.5 q33 -64 50 -131.5 q17 -67.5 17 -133.5 q0 -83 -27 -158.5 q-27 -75.5 -82.5 -133.5 q-55.5 -58 -139.5 -92.5 q-84 -34.5 -199 -34.5 Z" /><glyph glyph-name="T" unicode="t" d="M960 1792 l0 -228 l-320 0 l0 -1564 l-256 0 l0 1564 l-320 0 l0 228 l896 0 Z" /><glyph glyph-name="U" unicode="u" d="M640 -19 q-112 0 -193.5 26.5 q-81.5 26.5 -138.5 73 q-57 46.5 -92 110 q-35 63.5 -54.5 136.5 q-19.5 73 -26.5 153 q-7 80 -7 160 l0 1152 l256 0 l0 -1152 q0 -48 1 -100 q1 -52 8.5 -101.5 q7.5 -49.5 22.5 -94.5 q15 -45 43.5 -78.5 q28.5 -33.5 72.5 -53.5 q44 -20 108 -20 q64 0 108 20 q44 20 72.5 53.5 q28.5 33.5 43.5 78.5 q15 45 22.5 94.5 q7.5 49.5 8.5 101.5 q1 52 1 100 l0 1152 l256 0 l0 -1152 q0 -80 -7 -160 q-7 -80 -26.5 -153 q-19.5 -73 -54.5 -136.5 q-35 -63.5 -92 -110 q-57 -46.5 -138.5 -73 q-81.5 -26.5 -193.5 -26.5 Z" /><glyph glyph-name="V" unicode="v" d="M643 832 l189 960 l256 0 l-384 -1792 l-256 0 l-384 1792 l256 0 l189 -960 l66 -448 l68 448 Z" /><glyph glyph-name="W" unicode="w" d="M960 1792 l128 -832 l63 -512 l65 512 l128 832 l256 0 l-320 -1792 l-256 0 l-128 832 l-64 512 l-64 -512 l-128 -832 l-256 0 l-320 1792 l256 0 l128 -832 l65 -512 l63 512 l128 832 l256 0 Z" /><glyph glyph-name="X" unicode="x" d="M576 768 l-254 -768 l-256 0 l318 929 l-320 863 l256 0 l256 -704 l256 704 l256 0 l-320 -859 l316 -933 l-254 0 l-254 768 Z" /><glyph glyph-name="Y" unicode="y" d="M413 0 l0 576 l-384 1216 l256 0 l256 -896 l256 896 l256 0 l-384 -1216 l0 -576 l-256 0 Z" /><glyph glyph-name="Z" unicode="z" d="M320 192 l576 0 l0 -192 l-832 0 l0 192 l576 1408 l-512 0 l0 192 l768 0 l0 -192 l-576 -1408 Z" /><glyph glyph-name="a" unicode="a" d="M352 -18 q-48 0 -94 25 q-46 25 -82 67 q-36 42 -58 96 q-22 54 -22 113 q0 49 5 94 q5 45 23 87.5 q18 42.5 51.5 83.5 q33.5 41 90.5 82.5 q57 41.5 140.5 84.5 q83.5 43 201.5 89 l0 92 q0 66 -11 106.5 q-11 40.5 -29 62 q-18 21.5 -41 28.5 q-23 7 -47 7 q-24 0 -47 -7.5 q-23 -7.5 -41 -29.5 q-18 -22 -29 -62 q-11 -40 -11 -105 l-256 0 q1 91 28.5 165.5 q27.5 74.5 77.5 127 q50 52.5 120.5 81 q70.5 28.5 157.5 28.5 q103 0 175.5 -36 q72.5 -36 119 -93 q46.5 -57 68 -129 q21.5 -72 21.5 -144 l0 -576 q0 -117 9.5 -193.5 q9.5 -76.5 23.5 -126.5 l-255 0 l-34 192 q-24 -48 -49 -87 q-25 -39 -55 -66 q-30 -27 -67 -42 q-37 -15 -85 -15 ZM352 351 q0 -48 11 -78.5 q11 -30.5 29 -48.5 q18 -18 41 -25 q23 -7 47 -7 q19 0 37.5 9 q18.5 9 35 22.5 q16.5 13.5 30.5 30.5 q14 17 25 32 l0 354 q-65 -43 -113 -77 q-48 -34 -79.5 -67 q-31.5 -33 -47.5 -67.5 q-16 -34.5 -16 -77.5 Z" /><glyph glyph-name="b" unicode="b" d="M384 232 q57 -23 109 -31.5 q52 -8.5 83 -8.5 q39 0 64 26.5 q25 26.5 39 87 q14 60.5 19.5 158.5 q5.5 98 5.5 241 q0 84 -2 154.5 q-2 70.5 -14 121 q-12 50.5 -38 79 q-26 28.5 -74 28.5 q-48 0 -100 -13.5 q-52 -13.5 -92 -37.5 l0 -805 ZM384 1153 q49 52 89 81.5 q40 29.5 71.5 43.5 q31.5 14 56 17 q24.5 3 43.5 3 q90 0 150.5 -38.5 q60.5 -38.5 97 -124.5 q36.5 -86 52.5 -223 q16 -137 16 -335 q0 -58 -6.5 -124.5 q-6.5 -66.5 -21 -132.5 q-14.5 -66 -39 -127.5 q-24.5 -61.5 -60 -108 q-35.5 -46.5 -83.5 -74.5 q-48 -28 -110 -28 q-37 0 -72 11 q-35 11 -67.5 29.5 q-32.5 18.5 -62 43 q-29.5 24.5 -54.5 50.5 l0 -116 l-256 0 l0 1791 l256 0 l0 -638 Z" /><glyph glyph-name="c" unicode="c" d="M480 -18 q-96 0 -162 31 q-66 31 -108.5 82.5 q-42.5 51.5 -65.5 119.5 q-23 68 -33.5 141 q-10.5 73 -12.5 146.5 q-2 73.5 -2 137.5 q0 64 2 137.5 q2 73.5 12.5 146.5 q10.5 73 33.5 141 q23 68 65.5 119.5 q42.5 51.5 108.5 82.5 q66 31 162 31 q98 0 164.5 -25.5 q66.5 -25.5 109 -66.5 q42.5 -41 65.5 -93 q23 -52 33 -103.5 q10 -51.5 11 -98.5 q1 -47 1 -79 l-256 0 q0 16 -0.5 42 q-0.5 26 -3.5 55.5 q-3 29.5 -10.5 60 q-7.5 30.5 -22 54.5 q-14.5 24 -36.5 39.5 q-22 15.5 -55 15.5 q-48 0 -74 -35.5 q-26 -35.5 -38 -98 q-12 -62.5 -14 -146 q-2 -83.5 -2 -179.5 q0 -96 2 -178 q2 -82 14 -142 q12 -60 38 -94 q26 -34 74 -34 q48 0 74 22 q26 22 38 58 q12 36 14 82 q2 46 2 94 l256 0 q0 -32 -2 -79 q-2 -47 -13.5 -98.5 q-11.5 -51.5 -35 -103.5 q-23.5 -52 -66 -93 q-42.5 -41 -108 -66.5 q-65.5 -25.5 -159.5 -25.5 Z" /><glyph glyph-name="d" unicode="d" d="M672 1037 q-40 24 -92 37.5 q-52 13.5 -100 13.5 q-48 0 -74 -28.5 q-26 -28.5 -38 -79 q-12 -50.5 -14 -121 q-2 -70.5 -2 -154.5 q0 -143 5.5 -241 q5.5 -98 19.5 -158.5 q14 -60.5 39 -87 q25 -26.5 64 -26.5 q31 0 83 8.5 q52 8.5 109 31.5 l0 805 ZM672 1791 l256 0 l0 -1791 l-256 0 l0 116 q-25 -26 -54.5 -50.5 q-29.5 -24.5 -62 -43 q-32.5 -18.5 -67.5 -29.5 q-35 -11 -72 -11 q-62 0 -110 28 q-48 28 -83.5 74.5 q-35.5 46.5 -60 108 q-24.5 61.5 -39 127.5 q-14.5 66 -21 132.5 q-6.5 66.5 -6.5 124.5 q0 198 16 335 q16 137 52.5 223 q36.5 86 97 124.5 q60.5 38.5 150.5 38.5 q19 0 43.5 -3 q24.5 -3 56 -17 q31.5 -14 71 -43.5 q39.5 -29.5 89.5 -81.5 l0 638 Z" /><glyph glyph-name="e" unicode="e" d="M479 -18 q-96 0 -167.5 31.5 q-71.5 31.5 -119.5 109.5 q-48 78 -72 211 q-24 133 -24 336 q0 181 24 301.5 q24 120.5 72 193 q48 72.5 120 103 q72 30.5 168 30.5 q96 0 168 -30.5 q72 -30.5 120 -103 q48 -72.5 72 -193 q24 -120.5 24 -301.5 l0 -30 l-512 0 l0 -64 q0 -72 2 -141 q2 -69 14 -123 q12 -54 38 -87 q26 -33 74 -33 q49 0 75 22 q26 22 38 58 q12 36 14 82 q2 46 2 94 l255 0 q0 -240 -96 -353 q-96 -113 -289 -113 ZM480 1088 q-48 0 -74 -32 q-26 -32 -38 -80 q-12 -48 -14 -104 q-2 -56 -2 -104 l256 0 q0 48 -1.5 104 q-1.5 56 -13.5 104 q-12 48 -38 80 q-26 32 -75 32 Z" /><glyph glyph-name="f" unicode="f" d="M185 1088 l-128 0 l0 192 l128 0 l0 49 q0 43 0.5 89.5 q0.5 46.5 8 90.5 q7.5 44 24 84 q16.5 40 49 70 q32.5 30 83 47.5 q50.5 17.5 125.5 17.5 q36 0 70 -2.5 q34 -2.5 88 -9.5 l0 -190 q-24 2 -47.5 6 q-23.5 4 -38.5 4 q-36 0 -57.5 -13 q-21.5 -13 -32 -35 q-10.5 -22 -13.5 -51 q-3 -29 -3 -61 l0 -96 l192 0 l0 -192 l-192 0 l0 -1088 l-256 0 l0 1088 Z" /><glyph glyph-name="g" unicode="g" d="M993 1088 q-30 0 -55 -6 q-25 -6 -45 -15.5 q-20 -9.5 -35 -21 q-15 -11.5 -25 -21.5 q10 -29 21 -77.5 q11 -48.5 11 -114.5 q0 -96 -24 -180.5 q-24 -84.5 -72 -147.5 q-48 -63 -120 -99.5 q-72 -36.5 -168 -36.5 q-8 0 -19 0.5 q-11 0.5 -22.5 1.5 q-11.5 1 -22 2.5 q-10.5 1.5 -17.5 2.5 l-48 8 q-11 -20 -23 -40.5 q-12 -20.5 -12 -41.5 q0 -30 29 -45 q29 -15 76.5 -23.5 q47.5 -8.5 108.5 -13.5 q61 -5 124 -13.5 q63 -8.5 124 -24.5 q61 -16 108.5 -46 q47.5 -30 76.5 -78 q29 -48 29 -121 q0 -72 -24.5 -123.5 q-24.5 -51.5 -64 -87 q-39.5 -35.5 -89 -57 q-49.5 -21.5 -99.5 -33 q-50 -11.5 -95 -15 q-45 -3.5 -76 -3.5 q-35 0 -87 1 q-52 1 -108.5 6.5 q-56.5 5.5 -113 17 q-56.5 11.5 -102 32.5 q-45.5 21 -73.5 53 q-28 32 -28 78 q0 24 6.5 58 q6.5 34 30.5 85 q24 51 65.5 84 q41.5 33 89.5 57 q-63 17 -95.5 48.5 q-32.5 31.5 -32.5 63.5 q0 27 14 61.5 q14 34.5 34 69 q20 34.5 42 65.5 q22 31 38 51 q-68 81 -98 181 q-30 100 -30 203 q0 120 33 208 q33 88 87 145 q54 57 123 85 q69 28 141 28 q48 0 87 -8 q39 -8 72 -25.5 q33 -17.5 61.5 -46.5 q28.5 -29 55.5 -71 q13 24 33.5 50.5 q20.5 26.5 49.5 49 q29 22.5 67 37 q38 14.5 86 14.5 l0 -210 ZM765 -66 q-13 75 -201 98 l-211 25 q-15 -11 -31.5 -31.5 q-16.5 -20.5 -30.5 -46 q-14 -25.5 -23 -55 q-9 -29.5 -9 -59.5 q0 -24 22.5 -37 q22.5 -13 73.5 -16 q52 -4 97 -5 q45 -1 93 -1 q16 0 39 0.5 q23 0.5 48 3.5 q25 3 49.5 9 q24.5 6 44 16.5 q19.5 10.5 31.5 26.5 q12 16 12 39 q0 17 -4 33 ZM321 832 q0 -48 7 -96.5 q7 -48.5 25 -87.5 q18 -39 49 -63.5 q31 -24.5 79 -24.5 q48 0 79 24.5 q31 24.5 49 63.5 q18 39 25 87.5 q7 48.5 7 96.5 q0 48 -7 99 q-7 51 -25 93 q-18 42 -49 69 q-31 27 -79 27 q-48 0 -79 -27 q-31 -27 -49 -69 q-18 -42 -25 -93 q-7 -51 -7 -99 Z" /><glyph glyph-name="h" unicode="h" d="M128 1792 l256 0 l0 -650 q64 58 115 90 q51 32 90.5 46.5 q39.5 14.5 69.5 17 q30 2.5 53 2.5 q42 0 76 -17.5 q34 -17.5 58 -46.5 q24 -29 37 -66.5 q13 -37.5 13 -76.5 l0 -1091 l-256 0 l0 960 q0 24 -1.5 47 q-1.5 23 -9.5 41 q-8 18 -26 29 q-18 11 -51 11 q-49 0 -90.5 -22.5 q-41.5 -22.5 -77.5 -52.5 l0 -1013 l-256 0 l0 1792 Z" /><glyph glyph-name="i" unicode="i" d="M128 1280 l256 0 l0 -1280 l-256 0 l0 1280 ZM128 1728 l256 0 l0 -256 l-256 0 l0 256 Z" /><glyph glyph-name="j" unicode="j" d="M-12 -121 q14 -3 33 -5 q19 -2 31 -2 q48 0 74 18.5 q26 18.5 38 43 q12 24.5 14 49.5 q2 25 2 38 l0 1259 l256 0 l0 -1287 q0 -77 -24 -135.5 q-24 -58.5 -67 -98 q-43 -39.5 -101.5 -59.5 q-58.5 -20 -127.5 -20 q-13 0 -29.5 1 q-16.5 1 -34 3 q-17.5 2 -34.5 5 q-17 3 -30 8 l0 182 ZM180 1728 l256 0 l0 -256 l-256 0 l0 256 Z" /><glyph glyph-name="k" unicode="k" d="M384 1792 l0 -985 l320 473 l256 0 l-287 -447 l287 -833 l-256 0 l-192 619 l-128 -171 l0 -448 l-256 0 l0 1792 l256 0 Z" /><glyph glyph-name="l" unicode="l" d="M384 0 l-256 0 l0 1792 l256 0 l0 -1792 Z" /><glyph glyph-name="m" unicode="m" d="M640 929 q0 36 -1 65 q-1 29 -7 50 q-6 21 -19 32.5 q-13 11.5 -37 11.5 q-30 0 -57.5 -8 q-27.5 -8 -52 -20 q-24.5 -12 -45.5 -26 q-21 -14 -37 -27 l0 -1007 l-256 0 l0 1280 l256 0 l0 -145 q21 25 51.5 53.5 q30.5 28.5 70.5 53 q40 24.5 89 40.5 q49 16 108 16 q37 0 68.5 -6 q31.5 -6 56 -24.5 q24.5 -18.5 42 -51.5 q17.5 -33 26.5 -87 q48 63 95 97.5 q47 34.5 89 50 q42 15.5 77 18.5 q35 3 59 3 q72 0 111 -26.5 q39 -26.5 57 -74.5 q18 -48 21 -116 q3 -68 3 -150 l0 -931 l-256 0 l0 934 q0 34 -1 62 q-1 28 -7 48.5 q-6 20.5 -19 32 q-13 11.5 -37 11.5 q-29 0 -56.5 -8.5 q-27.5 -8.5 -52.5 -21 q-25 -12.5 -46 -28 q-21 -15.5 -37 -28.5 l0 -1002 l-256 0 l0 929 Z" /><glyph glyph-name="n" unicode="n" d="M128 1280 l256 0 l0 -138 q64 58 115 90 q51 32 90.5 46.5 q39.5 14.5 69.5 17 q30 2.5 53 2.5 q42 0 76 -17.5 q34 -17.5 58 -46.5 q24 -29 37 -66.5 q13 -37.5 13 -76.5 l0 -1091 l-256 0 l0 960 q0 24 -1.5 47 q-1.5 23 -10.5 41 q-9 18 -28.5 29 q-19.5 11 -55.5 11 q-49 0 -86.5 -22.5 q-37.5 -22.5 -73.5 -52.5 l0 -1013 l-256 0 l0 1280 Z" /><glyph glyph-name="o" unicode="o" d="M96 832 q0 32 2 79 q2 47 12.5 98.5 q10.5 51.5 33.5 103.5 q23 52 65.5 93 q42.5 41 108.5 66.5 q66 25.5 162 25.5 q96 0 162 -25.5 q66 -25.5 108.5 -66.5 q42.5 -41 65.5 -93 q23 -52 33.5 -103.5 q10.5 -51.5 12.5 -98.5 q2 -47 2 -79 l0 -384 q0 -32 -2 -79 q-2 -47 -12.5 -98.5 q-10.5 -51.5 -33.5 -103.5 q-23 -52 -65.5 -93 q-42.5 -41 -108.5 -66.5 q-66 -25.5 -162 -25.5 q-96 0 -162 25.5 q-66 25.5 -108.5 66.5 q-42.5 41 -65.5 93 q-23 52 -33.5 103.5 q-10.5 51.5 -12.5 98.5 q-2 47 -2 79 l0 384 ZM352 448 q0 -48 2 -94 q2 -46 14 -82 q12 -36 38 -58 q26 -22 74 -22 q48 0 74 22 q26 22 38 58 q12 36 14 82 q2 46 2 94 l0 384 q0 48 -2 94 q-2 46 -14 82 q-12 36 -38 58 q-26 22 -74 22 q-48 0 -74 -22 q-26 -22 -38 -58 q-12 -36 -14 -82 q-2 -46 -2 -94 l0 -384 Z" /><glyph glyph-name="p" unicode="p" d="M128 1280 l256 0 l0 -128 q50 53 89.5 82.5 q39.5 29.5 71 43.5 q31.5 14 55.5 17 q24 3 44 3 q90 0 150.5 -38.5 q60.5 -38.5 97 -124.5 q36.5 -86 52.5 -223.5 q16 -137.5 16 -335.5 q0 -58 -6.5 -124.5 q-6.5 -66.5 -21 -132.5 q-14.5 -66 -39 -127 q-24.5 -61 -60 -107.5 q-35.5 -46.5 -83.5 -74.5 q-48 -28 -110 -28 q-36 0 -71.5 11 q-35.5 11 -68 29.5 q-32.5 18.5 -62 42.5 q-29.5 24 -54.5 50 l0 -499 l-256 0 l0 1664 ZM384 244 q57 -33 109 -42.5 q52 -9.5 83 -9.5 q39 0 64 26.5 q25 26.5 39 86.5 q14 60 19.5 158 q5.5 98 5.5 241 q0 84 -5.5 156.5 q-5.5 72.5 -22 126 q-16.5 53.5 -46 84 q-29.5 30.5 -77.5 30.5 q-48 0 -88.5 -20.5 q-40.5 -20.5 -80.5 -44.5 l0 -792 Z" /><glyph glyph-name="q" unicode="q" d="M928 -384 l-256 0 l0 499 q-25 -26 -54.5 -50 q-29.5 -24 -62 -42.5 q-32.5 -18.5 -68 -29.5 q-35.5 -11 -71.5 -11 q-62 0 -110 28 q-48 28 -83.5 74.5 q-35.5 46.5 -60 107.5 q-24.5 61 -39 127 q-14.5 66 -21 132.5 q-6.5 66.5 -6.5 124.5 q0 198 16 335.5 q16 137.5 52.5 223.5 q36.5 86 97 124.5 q60.5 38.5 150.5 38.5 q19 0 43.5 -3 q24.5 -3 56 -17 q31.5 -14 71 -43.5 q39.5 -29.5 89.5 -82.5 l0 128 l256 0 l0 -1664 ZM672 1036 q-40 24 -80.5 44.5 q-40.5 20.5 -88.5 20.5 q-48 0 -77.5 -30.5 q-29.5 -30.5 -46 -84 q-16.5 -53.5 -22 -126 q-5.5 -72.5 -5.5 -156.5 q0 -143 5.5 -241 q5.5 -98 19.5 -158 q14 -60 39 -86.5 q25 -26.5 64 -26.5 q31 0 83 9.5 q52 9.5 109 42.5 l0 792 Z" /><glyph glyph-name="r" unicode="r" d="M384 1280 l0 -171 l14 0 q19 37 46.5 71 q27.5 34 62 60 q34.5 26 74 42 q39.5 16 82.5 16 q3 0 12 -1 q9 -1 29 -3 l0 -283 q-32 13 -70 20.5 q-38 7.5 -72 7.5 q-38 0 -70.5 -12.5 q-32.5 -12.5 -56.5 -35.5 q-24 -23 -37.5 -55.5 q-13.5 -32.5 -13.5 -71.5 l0 -864 l-256 0 l0 1280 l256 0 Z" /><glyph glyph-name="s" unicode="s" d="M276 384 q11 -31 28.5 -64.5 q17.5 -33.5 41.5 -62 q24 -28.5 54 -47 q30 -18.5 68 -18.5 q24 0 47 6.5 q23 6.5 41 21.5 q18 15 29 39.5 q11 24.5 11 60.5 q0 29 -6 52 q-6 23 -15.5 41.5 q-9.5 18.5 -21 32 q-11.5 13.5 -21.5 22.5 l-256 192 q-62 43 -100 83.5 q-38 40.5 -58.5 78 q-20.5 37.5 -27 72 q-6.5 34.5 -6.5 66.5 q0 72 24 134 q24 62 72 107 q48 45 120 71 q72 26 168 26 q96 0 163 -33.5 q67 -33.5 112 -84.5 q45 -51 71 -110 q26 -59 38 -110 l-192 -64 q-11 29 -27.5 62.5 q-16.5 33.5 -40.5 62.5 q-24 29 -54.5 48 q-30.5 19 -69.5 19 q-24 0 -47 -6.5 q-23 -6.5 -41 -21.5 q-18 -15 -29 -39.5 q-11 -24.5 -11 -60.5 q0 -38 21.5 -65 q21.5 -27 42.5 -43 l256 -192 q91 -73 141.5 -155.5 q50.5 -82.5 50.5 -184.5 q0 -72 -24 -134 q-24 -62 -72 -107 q-48 -45 -120 -71 q-72 -26 -168 -26 q-60 0 -108.5 14.5 q-48.5 14.5 -87 38 q-38.5 23.5 -67 54 q-28.5 30.5 -49.5 62.5 q-49 73 -72 169 l192 64 Z" /><glyph glyph-name="t" unicode="t" d="M180 1728 l256 0 l0 -448 l192 0 l0 -192 l-192 0 l0 -747 q0 -32 3 -59.5 q3 -27.5 13.5 -47.5 q10.5 -20 32 -31 q21.5 -11 57.5 -11 q14 0 38.5 3 q24.5 3 47.5 7 l0 -208 q-54 -7 -88 -9.5 q-34 -2.5 -70 -2.5 q-75 0 -125.5 17.5 q-50.5 17.5 -83 47.5 q-32.5 30 -49 69.5 q-16.5 39.5 -24 84 q-7.5 44.5 -8 91 q-0.5 46.5 -0.5 89.5 l0 707 l-128 0 l0 192 l128 0 l0 448 Z" /><glyph glyph-name="u" unicode="u" d="M896 0 l-256 0 l0 138 q-64 -58 -114 -89.5 q-50 -31.5 -89.5 -46.5 q-39.5 -15 -69.5 -17.5 q-30 -2.5 -53 -2.5 q-42 0 -76.5 17.5 q-34.5 17.5 -59 46 q-24.5 28.5 -37.5 66 q-13 37.5 -13 77.5 l0 1091 l256 0 l0 -1013 q0 -42 25.5 -66 q25.5 -24 62.5 -24 q24 0 46.5 8.5 q22.5 8.5 43.5 21.5 q21 13 40.5 29 q19.5 16 37.5 31 l0 1013 l256 0 l0 -1280 Z" /><glyph glyph-name="v" unicode="v" d="M312 0 l-288 1280 l256 0 l160 -960 l160 960 l256 0 l-286 -1280 l-258 0 Z" /><glyph glyph-name="w" unicode="w" d="M659 882 l-138 -882 l-246 0 l-237 1280 l227 0 l142 -972 l134 972 l234 0 l136 -962 l140 962 l228 0 l-248 -1280 l-236 0 l-136 882 Z" /><glyph glyph-name="x" unicode="x" d="M297 640 l0 64 l-256 576 l256 0 l128 -384 l32 -128 l32 128 l128 384 l256 0 l-256 -576 l0 -64 l256 -640 l-256 0 l-128 384 l-32 128 l-32 -128 l-128 -384 l-256 0 l256 640 Z" /><glyph glyph-name="y" unicode="y" d="M462 384 l31 192 l128 704 l256 0 l-320 -1344 q-17 -74 -53.5 -123.5 q-36.5 -49.5 -92 -79 q-55.5 -29.5 -131 -41.5 q-75.5 -12 -171.5 -12 l0 192 q59 0 100.5 14 q41.5 14 67.5 38.5 q26 24.5 37.5 58 q11.5 33.5 11.5 73.5 q0 17 -1.5 35 q-1.5 18 -6.5 37 l-273 1152 l256 0 l128 -704 l33 -192 Z" /><glyph glyph-name="z" unicode="z" d="M512 1088 l-384 0 l0 192 l640 0 l0 -192 l-448 -896 l448 0 l0 -192 l-704 0 l0 192 l448 896 Z" /><glyph glyph-name="fenxiang" unicode="&#xe62e;" d="M1024 1636 q-370 -8 -616 -254 q-246 -246 -254 -616 q8 -370 254 -616 q246 -246 616 -256 q370 10 616 256 q246 246 254 616 q-8 370 -254 616 q-246 246 -616 254 ZM1204 568 q42 32 98 34 q68 -2 113 -48 q45 -46 45 -114 q0 -68 -45 -114 q-45 -46 -113 -46 q-68 0 -114 46 q-46 46 -48 114 l-410 198 q-38 -24 -86 -26 q-70 2 -115 47 q-45 45 -45 114 q0 69 45 114 q45 45 115 47 q58 -2 100 -36 l396 194 q2 68 48 113 q46 45 114 45 q68 0 113 -45 q45 -45 45 -114 q0 -69 -45 -114 q-45 -45 -113 -47 q-56 2 -98 32 l-400 -192 l0 -8 l400 -194 Z" /><glyph glyph-name="coil" unicode="&#xe614;" d="M1832 766 q-4 338 -115 566 q-111 228 -281 244 l-820 0 q-172 -10 -285 -238 q-113 -228 -117 -572 q4 -332 112 -558 q108 -226 272 -250 l-4 0 l842 -2 l12 2 q164 26 272 251 q108 225 112 557 ZM294 766 q4 310 95 515 q91 205 229 213 q136 -8 228 -213 q92 -205 94 -515 q-2 -308 -94 -514 q-92 -206 -228 -214 q-138 8 -229 214 q-91 206 -95 514 ZM820 766 q-2 172 -59 286 q-57 114 -143 120 q-86 -6 -143 -120 q-57 -114 -57 -286 q0 -172 57 -286 q57 -114 143 -118 q86 4 143 118 q57 114 59 286 ZM496 766 q2 138 36 229 q34 91 86 95 q50 -4 85 -95 q35 -91 35 -228 q0 -137 -35 -229 q-35 -92 -85 -96 q-52 4 -86 95 q-34 91 -36 229 Z" /><glyph glyph-name="foil" unicode="&#xe625;" d="M1832 766 q-4 338 -115 566 q-111 228 -281 244 l-820 0 q-172 -10 -285 -238 q-113 -228 -117 -572 q4 -332 112 -558 q108 -226 272 -250 l-4 0 l842 -2 l12 2 q164 26 272 251 q108 225 112 557 ZM294 766 q4 310 95 515 q91 205 229 213 q136 -8 228 -213 q92 -205 94 -515 q-2 -308 -94 -514 q-92 -206 -228 -214 q-138 8 -229 214 q-91 206 -95 514 ZM748 772 q0 98 -34 164 q-34 66 -96 70 q-64 -4 -98 -72 q-34 -68 -34 -168 q0 -100 34 -168 q34 -68 98 -70 q62 2 96 73 q34 71 34 171 ZM556 766 q2 74 17 116 q15 42 45 42 q58 0 58 -158 q0 -158 -58 -160 q-60 2 -62 160 Z" /><glyph glyph-name="plate" unicode="&#xe626;" d="M356 688 l1336 0 l0 -124 l-1336 0 l0 124 ZM1692 760 l-1336 0 l238 800 l870 0 l228 -800 ZM356 298 l1336 0 l0 -126 l-1336 0 l0 126 ZM356 492 l1336 0 l0 -124 l-1336 0 l0 124 ZM356 102 l1336 0 l0 -126 l-1336 0 l0 126 Z" /><glyph glyph-name="circle" unicode="&#xe628;" d="M1734 1218 l0 -44 q-8 -162 -210 -280 q-202 -118 -504 -124 q-300 8 -499 125 q-199 117 -205 279 l0 48 q6 -160 205 -261 q199 -101 499 -105 q302 2 504 102 q202 100 210 260 ZM1030 1668 q302 -6 501 -113 q199 -107 203 -267 q-8 -160 -210 -266 q-202 -106 -504 -108 q-300 6 -499 113 q-199 107 -205 267 q10 160 212 265 q202 105 502 109 ZM1734 1040 l0 -44 q-8 -162 -210 -280 q-202 -118 -504 -124 q-300 8 -499 125 q-199 117 -205 279 l0 48 q6 -160 205 -261 q199 -101 499 -105 q302 2 504 102 q202 100 210 260 ZM1734 862 l0 -44 q-8 -162 -210 -280 q-202 -118 -504 -124 q-300 8 -499 125 q-199 117 -205 279 l0 48 q6 -160 205 -261 q199 -101 499 -105 q302 2 504 102 q202 100 210 260 ZM1734 684 l0 -44 q-8 -162 -210 -280 q-202 -118 -504 -124 q-300 8 -499 125 q-199 117 -205 279 l0 48 q6 -160 205 -261 q199 -101 499 -105 q302 2 504 102 q202 100 210 260 ZM1732 506 l0 -44 q-12 -162 -217 -280 q-205 -118 -497 -124 q-302 8 -501 125 q-199 117 -203 279 l0 48 q4 -160 203 -261 q199 -101 501 -105 q300 2 502 102 q202 100 212 260 ZM1726 340 l0 -74 q-10 -162 -213 -278 q-203 -116 -495 -120 q-292 6 -493 122 q-201 116 -207 278 l0 78 q6 -160 202 -264 q196 -104 498 -108 q300 2 499 104 q199 102 209 262 Z" /><glyph glyph-name="lvjuan" unicode="&#xe62b;" d="M1714 172 q-44 -14 -90 -14 l-464 0 q-126 4 -210 88 q-84 84 -88 210 q4 124 84 207 q80 83 202 91 l-152 0 q-88 -44 -139 -125 q-51 -81 -51 -181 q4 -96 55 -172 q51 -76 133 -118 l-560 0 q-126 4 -210 87 q-84 83 -88 209 q6 -180 99 -253 q93 -73 187 -71 l0 0 l1230 0 q86 -2 172 74 q86 76 96 238 q-6 -96 -62 -168 q-56 -72 -144 -102 ZM1712 720 q-36 12 -78 14 l-22 0 l-440 20 q122 -6 203 -90 q81 -84 83 -208 q-2 -126 -87 -210 q-85 -84 -211 -88 l462 0 q48 0 90 14 q92 30 150 107 q58 77 58 178 q0 101 -57 168 q-57 67 -151 95 ZM1458 456 q-2 -126 -87 -210 q-85 -84 -211 -88 q-126 4 -210 88 q-84 84 -88 210 q4 128 88 212 q84 84 210 86 q128 -2 212 -86 q84 -84 86 -212 ZM1160 456 l0 0 ZM1028 456 q2 -56 39 -93 q37 -37 93 -37 q56 0 94 37 q38 37 38 94 q0 57 -38 94 q-38 37 -94 37 q-56 0 -93 -37 q-37 -37 -39 -95 ZM806 448 q0 102 51 182 q51 80 139 124 l-550 0 q122 -6 203 -90 q81 -84 83 -208 q-2 -126 -86 -210 q-84 -84 -212 -88 l560 0 q-82 44 -133 119 q-51 75 -55 171 ZM732 456 q-2 -126 -86 -210 q-84 -84 -212 -88 q-126 4 -210 88 q-84 84 -88 210 q4 128 88 212 q84 84 210 86 q128 -2 212 -86 q84 -84 86 -212 ZM434 456 l0 0 ZM302 456 q0 -36 18 -66 q18 -30 49 -48 q31 -18 66 -18 q35 0 66 18 q31 18 48 48 q17 30 17 66 q0 36 -17 67 q-17 31 -48 49 q-31 18 -66 18 q-35 0 -66 -18 q-31 -18 -49 -49 q-18 -31 -18 -67 ZM1350 796 q-44 -14 -90 -14 l-462 0 q-126 2 -209 86 q-83 84 -87 210 q6 -182 98 -255 q92 -73 184 -69 l0 -2 l506 2 q86 -2 171 74 q85 76 97 238 q-6 -96 -63 -169 q-57 -73 -145 -101 ZM1350 1344 q-38 12 -78 12 l-24 0 l-440 22 q122 -8 203 -91 q81 -83 83 -207 q-2 -126 -86 -211 q-84 -85 -212 -87 l464 0 q46 0 90 14 q92 30 149 106 q57 76 57 177 q0 101 -57 168 q-57 67 -149 97 ZM1096 1080 q-2 -126 -86 -211 q-84 -85 -212 -87 q-126 2 -210 87 q-84 85 -86 211 q2 126 86 210 q84 84 210 88 q128 -4 212 -88 q84 -84 86 -210 ZM798 1080 l0 0 ZM666 1080 q0 -36 18 -66 q18 -30 49 -48 q31 -18 66 -18 q35 0 66 18 q31 18 49 48 q18 30 18 66 q0 36 -18 66 q-18 30 -49 48 q-31 18 -66 18 q-35 0 -66 -18 q-31 -18 -49 -48 q-18 -30 -18 -66 Z" /><glyph glyph-name="arrow" unicode="&#xe623;" d="M768 256 l512 512 l-512 512 l0 -1024 Z" /><glyph glyph-name="atmail" unicode="&#xe616;" d="M1616 956 q-32 182 -180 296 q-126 96 -284 114 l-76 6 l-76 0 l-60 -6 q-212 -30 -348 -169 q-136 -139 -172 -319 q-8 -46 -12 -92 l-2 -10 l0 -84 l6 -60 q24 -168 127 -286 q103 -118 265 -166 q74 -20 148 -24 l10 -2 l98 0 l76 8 q94 8 180 44 q6 2 8 8 l0 136 l-56 -22 q-122 -44 -252 -42 q-88 0 -170 28 q-162 52 -232 206 q-30 68 -38 138 q-8 70 0 144 q12 110 68 204 q66 108 162 168 q96 60 224 66 q94 4 184 -24 q122 -42 188 -152 q36 -58 48 -123 q12 -65 8 -131 q0 -76 -26 -148 q-10 -26 -24 -48 q-14 -22 -35 -38 q-21 -16 -45 -16 q-38 0 -48 42 q-8 32 -8 64 q6 104 14 207 q8 103 18 203 l-162 0 l-8 -74 l-6 10 q-30 74 -110 78 q-72 6 -129 -24 q-57 -30 -99 -86 q-68 -94 -78 -210 q-10 -88 10 -172 q14 -50 41 -88 q27 -38 73 -62 q50 -24 114 -19 q64 5 110 51 q30 32 48 74 l6 16 l4 -2 l2 -18 q10 -50 44 -82 q34 -32 84 -38 q152 -16 258 92 q52 54 79 118 q27 64 35 138 l4 38 l0 74 q-4 32 -8 66 l0 0 ZM1094 658 q-16 -44 -52 -76 q-44 -34 -88 -21 q-44 13 -64 63 q-12 36 -14 72 q-2 36 4 72 q8 80 56 146 q34 48 92 45 q58 -3 80 -55 q16 -42 12 -86 q2 -82 -26 -160 l0 0 ZM1094 658 l0 0 Z" /><glyph glyph-name="youzhigongyingshang" unicode="&#xe617;" d="M1882 1048 q-158 224 -316 448 q-16 22 -44 24 l-1006 0 q-24 0 -36 -14 l-8 -10 l-276 -448 q-10 -16 -7 -31 q3 -15 13 -27 l782 -1003 q18 -20 40 -16 q16 -2 32 16 l822 1005 q8 12 10 27 q2 15 -6 29 ZM1740 1072 l-310 0 l108 290 l202 -290 ZM1020 1396 q112 -162 222 -324 l-450 0 l228 324 ZM1286 972 q-132 -362 -264 -721 q-128 361 -260 721 l524 0 ZM1338 1112 q-106 154 -212 308 l324 0 l-112 -308 ZM704 1122 q-56 150 -114 298 l324 0 l-210 -298 ZM506 1358 q56 -142 110 -286 l-286 0 q88 144 176 286 ZM654 972 q138 -372 270 -743 l-582 743 l312 0 ZM1394 972 l338 0 l-614 -751 l276 751 Z" /><glyph glyph-name="bankcard" unicode="&#xe612;" d="M1712 1436 l-1380 0 q-64 0 -107 -43 q-43 -43 -45 -107 l0 -168 l1684 0 l0 168 q-2 64 -45 107 q-43 43 -107 43 ZM180 256 q2 -64 45 -106 q43 -42 107 -44 l1380 0 q64 2 107 44 q43 42 45 106 l0 636 l-1684 0 l0 -636 ZM1558 480 l124 0 l0 -142 l-124 0 l0 142 ZM1398 480 l124 0 l0 -142 l-124 0 l0 142 ZM1244 480 l124 0 l0 -142 l-124 0 l0 142 Z" /><glyph glyph-name="fax" unicode="&#xe60c;" d="M1536 200 l-92 152 l-92 -152 l-244 0 l-22 78 l-162 0 l-24 -78 l-146 0 l174 474 l156 0 l150 -408 l118 182 l-146 226 l158 0 l82 -146 l80 146 l156 0 l-144 -228 l158 -246 l-160 0 ZM754 394 l-180 0 l0 -194 l-144 0 l0 474 l354 0 l0 -102 l-210 0 l0 -82 l180 0 l0 -96 ZM1728 794 l-1408 0 q-60 -2 -99 -42 q-39 -40 -41 -102 l0 -394 q2 -60 41 -100 q39 -40 99 -42 l1408 0 q60 2 99 42 q39 40 41 100 l0 394 q-2 62 -41 102 q-39 40 -99 42 ZM1004 552 l-50 -170 l102 0 l-52 170 ZM1444 1178 l-836 0 l0 72 l836 0 l0 -72 ZM1444 1010 l-836 0 l0 72 l836 0 l0 -72 ZM1428 1422 l-818 0 q-60 -2 -99 -42 q-39 -40 -41 -100 l0 -422 l1098 0 l0 422 q-2 60 -42 100 q-40 40 -98 42 Z" /><glyph glyph-name="jiance" unicode="&#xe611;" d="M1116 692 q-2 -2 0 0 l0 0 ZM650 800 q4 -160 110 -266 q106 -106 264 -110 q160 4 265 110 q105 106 109 266 q-4 160 -109 266 q-105 106 -265 110 q-158 -4 -264 -110 q-106 -106 -110 -266 ZM958 692 q12 10 124 134 q112 124 192 228 q-4 -46 -5 -89 q-1 -43 1 -95 l-128 -148 q-30 -34 -26 -30 q4 4 -22 -26 l-132 -154 q-150 148 -119 119 q31 -29 -121 119 l122 90 l114 -148 ZM1020 1608 l-738 -250 l172 -1052 q12 -24 194 -187 q182 -163 376 -187 q196 24 389 185 q193 161 209 185 l146 1056 l-748 250 ZM1472 418 q-10 -16 -155 -137 q-145 -121 -293 -139 q-144 18 -281 140 q-137 122 -147 140 l-128 790 l554 186 l560 -186 l-110 -794 Z" /><glyph glyph-name="bianji1" unicode="&#xe621;" d="M1786 1314 l-164 -162 l-216 216 l162 162 q24 22 55 22 q31 0 55 -22 l108 -108 q22 -24 22 -55 q0 -31 -22 -53 ZM646 610 l218 -216 l-290 -72 l72 288 ZM1568 1096 l-650 -648 l-218 216 l652 650 l216 -218 ZM408 1278 l0 -1126 l1126 0 l0 844 l170 114 l0 -1070 q0 -32 -13 -44 q-13 -12 -45 -12 l-1330 0 q-32 0 -54 22 q-22 22 -22 54 l0 1330 q0 32 12 45 q12 13 44 13 l1070 0 l-170 -170 l-788 0 Z" /><glyph glyph-name="jisuan" unicode="&#xe666;" d="M406 1514 l0 -1490 q0 -18 12 -30 q12 -12 30 -12 l1152 0 q18 0 30 12 q12 12 12 30 l0 1490 q0 18 -12 30 q-12 12 -30 12 l-1152 0 q-18 0 -30 -12 q-12 -12 -12 -30 ZM1530 1422 l0 -182 q-2 -20 -20 -22 l-972 0 q-18 2 -20 22 l0 182 q2 20 20 22 l972 0 q18 -2 20 -22 ZM518 114 l0 970 q2 20 20 22 l972 0 q18 -2 20 -22 l0 -970 q-2 -18 -20 -20 l-972 0 q-18 2 -20 20 ZM762 766 l-142 0 q-18 0 -30 12 q-12 12 -12 30 l0 140 q0 18 12 30 q12 12 30 12 l142 0 q18 0 29 -12 q11 -12 13 -30 l0 -140 q-2 -18 -13 -30 q-11 -12 -29 -12 ZM1096 766 l-140 0 q-18 0 -30 12 q-12 12 -12 30 l0 140 q0 18 12 30 q12 12 30 12 l140 0 q18 0 30 -12 q12 -12 12 -30 l0 -140 q0 -18 -12 -30 q-12 -12 -30 -12 ZM1432 766 l-140 0 q-18 0 -30 12 q-12 12 -12 30 l0 140 q0 18 12 30 q12 12 30 12 l140 0 q18 0 30 -12 q12 -12 12 -30 l0 -140 q0 -18 -12 -30 q-12 -12 -30 -12 ZM760 486 l-140 0 q-18 0 -30 12 q-12 12 -12 30 l0 140 q0 18 12 30 q12 12 30 12 l140 0 q18 0 30 -12 q12 -12 14 -30 l0 -140 q-2 -18 -14 -30 q-12 -12 -30 -12 ZM1096 486 l-140 0 q-18 0 -30 12 q-12 12 -12 30 l0 140 q0 18 12 30 q12 12 30 12 l140 0 q18 0 30 -12 q12 -12 12 -30 l0 -140 q0 -18 -12 -30 q-12 -12 -30 -12 ZM1432 486 l-140 0 q-18 0 -30 12 q-12 12 -12 30 l0 140 q0 18 12 30 q12 12 30 12 l140 0 q18 0 30 -12 q12 -12 12 -30 l0 -140 q0 -18 -12 -30 q-12 -12 -30 -12 ZM760 206 l-140 0 q-18 0 -30 12 q-12 12 -12 30 l0 142 q0 16 12 28 q12 12 30 14 l140 0 q18 -2 30 -14 q12 -12 14 -28 l0 -142 q-2 -18 -14 -30 q-12 -12 -30 -12 ZM1096 206 l-140 0 q-18 0 -30 12 q-12 12 -12 30 l0 142 q0 16 12 28 q12 12 30 14 l140 0 q18 -2 30 -14 q12 -12 12 -28 l0 -142 q0 -18 -12 -30 q-12 -12 -30 -12 ZM1432 206 l-140 0 q-18 0 -30 12 q-12 12 -12 30 l0 142 q0 16 12 28 q12 12 30 14 l140 0 q18 -2 30 -14 q12 -12 12 -28 l0 -142 q0 -18 -12 -30 q-12 -12 -30 -12 Z" /><glyph glyph-name="liulan1" unicode="&#xe663;" d="M1868 768 q-120 -226 -342 -362 q-222 -136 -502 -138 q-280 2 -502 138 q-222 136 -342 362 q120 226 342 362 q222 136 502 138 q280 -2 502 -138 q222 -136 342 -362 ZM1024 462 q140 2 232 91 q92 89 96 223 q-4 132 -96 221 q-92 89 -232 93 q-140 -4 -232 -93 q-92 -89 -96 -221 q4 -134 96 -223 q92 -89 232 -91 ZM790 768 q2 -106 68 -176 q66 -70 166 -72 q100 2 166 72 q66 70 68 176 q-2 106 -68 176 q-66 70 -166 72 q-100 -2 -166 -72 q-66 -70 -68 -176 Z" /><glyph glyph-name="shijian" unicode="&#xe714;" d="M1024 -76 q-358 10 -596 248 q-238 238 -248 596 q10 358 248 596 q238 238 596 248 q358 -10 596 -248 q238 -238 248 -596 q-10 -358 -248 -596 q-238 -238 -596 -248 ZM1316 574 l-220 168 l0 498 q0 32 -21 52 q-21 20 -51 20 q-30 0 -51 -20 q-21 -20 -21 -52 l0 -570 l274 -210 q26 -18 55 -15 q29 3 47 28 q18 25 15 54 q-3 29 -27 47 Z" /><glyph glyph-name="mianji" unicode="&#xe606;" d="M1790 1218 q22 2 36 16 q14 14 16 36 l0 270 q-2 22 -16 36 q-14 14 -36 14 l-270 0 q-22 0 -36 -14 q-14 -14 -14 -36 l0 -84 l-166 0 q-8 0 -16 0 l-710 0 l0 84 q0 22 -14 36 q-14 14 -36 14 l-270 0 q-22 0 -36 -14 q-14 -14 -16 -36 l0 -270 q2 -22 16 -36 q14 -14 36 -16 l84 0 l0 -890 l-84 0 q-22 0 -36 -15 q-14 -15 -16 -35 l0 -270 q2 -22 16 -37 q14 -15 36 -15 l270 0 q22 0 36 15 q14 15 14 37 l0 84 l892 0 l0 -84 q0 -22 14 -37 q14 -15 36 -15 l270 0 q22 0 36 15 q14 15 16 37 l0 270 q-2 20 -16 35 q-14 15 -36 15 l-84 0 l0 890 l84 0 ZM1572 1488 l168 0 l0 -168 l-168 0 l0 168 ZM444 860 q4 2 8 6 l488 488 l232 0 l-728 -728 l0 234 ZM308 1488 l168 0 l0 -168 l-168 0 l0 168 ZM528 1218 q22 2 36 16 q14 14 14 36 l0 84 l218 0 l-352 -352 l0 216 l84 0 ZM444 482 l872 872 l154 0 l0 -64 l-964 -962 l-62 0 l0 154 ZM308 58 l0 168 l168 0 l0 -168 l-168 0 ZM1604 694 l-488 -488 q-6 -6 -10 -12 l-232 0 l730 730 l0 -230 ZM1740 58 l-168 0 l0 168 l168 0 l0 -168 ZM1520 328 q-22 0 -36 -15 q-14 -15 -14 -35 l0 -84 l-222 0 l356 356 l0 -222 l-84 0 ZM1604 1068 l-876 -874 l-150 0 l0 62 l964 962 l62 0 l0 -150 Z" /><glyph glyph-name="sheji" unicode="&#xe630;" d="M1544 1600 l-1356 -1356 l316 -316 l1356 1356 l-316 316 ZM404 172 l-124 122 l28 28 l122 -124 l-26 -26 ZM524 292 l-124 122 l28 28 l122 -124 l-26 -26 ZM644 412 l-124 122 l28 28 l124 -124 l-28 -26 ZM764 532 l-122 124 l26 26 l124 -122 l-28 -28 ZM884 652 l-122 124 l26 26 l124 -122 l-28 -28 ZM1006 774 l-124 122 l28 28 l122 -124 l-26 -26 ZM1126 894 l-124 122 l28 28 l124 -124 l-28 -26 ZM1246 1014 l-122 124 l26 26 l124 -122 l-28 -28 ZM1366 1134 l-122 124 l26 26 l124 -122 l-28 -28 ZM1488 1254 l-124 124 l28 28 l122 -124 l-26 -28 ZM1484 1498 l28 28 l122 -124 l-26 -26 l-124 122 ZM1610 488 l-236 236 l-308 -308 l236 -236 l400 -92 l-92 400 ZM500 1596 l480 -480 l-308 -306 l-480 480 l308 306 Z" /><glyph glyph-name="anzhuang" unicode="&#xe8d7;" d="M1058 564 q-102 -48 -213 -31 q-111 17 -195 101 q-76 76 -97 172 q-21 96 7 190 l52 10 l112 -120 l106 0 l74 76 l0 104 l-120 114 l10 50 q96 30 192 8 q96 -22 174 -94 q82 -86 99 -197 q17 -111 -29 -213 l468 -468 q78 104 122 232 q44 128 44 270 q-10 356 -247 593 q-237 237 -593 247 q-356 -10 -593 -247 q-237 -237 -247 -593 q10 -356 247 -593 q237 -237 593 -247 q142 0 270 44 q128 44 232 122 l-468 470 Z" /><glyph glyph-name="houdu" unicode="&#xe60b;" d="M1038 94 l-858 376 l0 -158 l858 -388 l858 388 l0 158 l-858 -376 ZM1038 94 l0 0 ZM1040 1612 l-860 -368 l0 -88 l858 -376 l858 376 l0 88 l-856 368 ZM1040 1612 l0 0 ZM1038 700 l-858 376 l0 -40 l858 -376 l858 380 l0 40 l-858 -380 ZM1038 576 l-858 376 l0 -40 l858 -376 l858 380 l0 40 l-858 -380 ZM1038 452 l-858 376 l0 -38 l858 -376 l858 380 l0 38 l-858 -380 ZM1038 330 l-858 376 l0 -40 l858 -376 l858 380 l0 40 l-858 -380 ZM1038 206 l-858 376 l0 -40 l858 -376 l858 380 l0 40 l-858 -380 Z" /><glyph glyph-name="fire" unicode="&#xefd4;" d="M1114 1638 q-6 70 -64 87 q-58 17 -102 -37 q-292 -480 -76 -651 q216 -171 272 -389 q-2 -102 -71 -170 q-69 -68 -173 -70 q-100 4 -167 73 q-67 69 -69 171 l0 320 q-4 64 -56 84 q-52 20 -100 -22 q-78 -80 -139 -210 q-61 -130 -65 -296 q8 -306 211 -509 q203 -203 509 -211 q306 8 509 211 q203 203 211 509 q-40 452 -315 650 q-275 198 -315 460 Z" /><glyph glyph-name="whmcs" unicode="&#xf265;" d="M1864 1124 l0 80 l-106 34 l-10 38 l76 78 l-38 72 l-110 -28 l-26 28 l28 106 l-72 44 l-80 -78 l-40 12 l-26 98 l-84 0 l-24 -98 l-46 -12 l-74 78 l-72 -42 l30 -104 l-30 -30 l-108 28 l-40 -72 l78 -80 l-12 -38 l-106 -30 l-2 -80 l108 -28 l10 -46 l-76 -74 l40 -70 l110 28 l28 -32 l-32 -102 l76 -42 l72 76 l44 -12 l24 -106 l86 -2 l24 108 l44 14 l78 -80 l76 44 l-32 106 l28 30 l108 -34 l40 76 l-80 70 l8 46 l110 26 ZM1418 954 q-92 4 -152 64 q-60 60 -62 150 q2 90 62 150 q60 60 152 62 q90 -2 150 -62 q60 -60 62 -150 q-2 -92 -62 -152 q-60 -60 -150 -62 ZM1688 894 l176 -56 l0 -148 l-206 -50 l-16 -86 l146 -132 l-72 -142 l-202 62 l-56 -56 l64 -198 l-144 -84 l-146 150 l-82 -24 l-46 -202 l-160 2 l-48 200 l-80 22 l-136 -144 l-142 80 l58 190 l-52 60 l-208 -52 l-74 130 l142 140 l-18 86 l-202 52 l2 154 l200 56 l22 74 l-146 148 l78 134 l200 -54 l58 60 l-58 194 l138 78 l138 -148 l84 24 l44 194 l158 0 l44 -172 l-108 28 l-66 -114 l82 -82 l-2 -4 l-112 -30 l-2 -72 q-136 -34 -222 -139 q-86 -105 -90 -251 q4 -168 116 -280 q112 -112 280 -116 q146 4 251 89 q105 85 137 223 l76 -2 l26 116 l8 2 l82 -86 l120 72 l-34 104 Z" /><glyph glyph-name="liebiao1" unicode="&#xe645;" d="M652 206 l1212 0 l0 186 l-1212 0 l0 -186 ZM652 766 l1212 0 l0 186 l-1212 0 l0 -186 ZM652 1512 l0 -186 l1212 0 l0 186 l-1212 0 ZM184 206 l280 0 l0 186 l-280 0 l0 -186 ZM184 766 l280 0 l0 186 l-280 0 l0 -186 ZM184 1326 l280 0 l0 186 l-280 0 l0 -186 Z" /><glyph glyph-name="qq" unicode="&#xe618;" d="M324 642 q-44 -114 -50 -203 q-6 -89 30 -111 q24 -14 60 14 q36 28 72 84 q30 -126 134 -216 q-54 -22 -85 -54 q-31 -32 -31 -70 q2 -66 81 -109 q79 -43 199 -43 q106 0 182 36 q76 36 94 92 l34 0 q18 -56 94 -92 q76 -36 184 -36 q118 0 198 43 q80 43 82 109 q0 38 -32 70 q-32 32 -86 54 q104 90 134 216 q38 -56 73 -84 q35 -28 61 -14 q36 22 30 111 q-6 89 -52 203 q-36 88 -78 147 q-42 59 -80 75 l0 22 q0 68 -32 120 l2 8 q-2 32 -14 56 q-10 232 -141 384 q-131 152 -359 158 q-228 -6 -359 -158 q-131 -152 -143 -384 q-12 -26 -12 -56 l0 -8 q-30 -52 -32 -120 l2 -24 q-38 -14 -81 -73 q-43 -59 -79 -147 Z" /><glyph glyph-name="gonggao" unicode="&#xe61e;" d="M2140 857 l-374 0 q-34 -2 -56 -23 q-22 -21 -22 -55 l0 -24 q0 -32 22 -54 q22 -22 56 -24 l374 0 q34 2 55 24 q21 22 23 54 l0 24 q-2 34 -23 55 q-21 21 -55 23 ZM1270 1521 q-94 -70 -247 -161 q-153 -91 -291 -187 l-6 -10 q-12 -10 -37 -26 q-25 -16 -105 -18 l-222 0 q-42 0 -66 -21 q-24 -21 -24 -65 l0 -530 q0 -90 90 -90 l222 0 q80 -2 105 -17 q25 -15 37 -27 l6 -8 q134 -96 287 -191 q153 -95 251 -164 q34 -26 92 -25 q58 1 64 116 l0 1340 q-6 116 -65 114 q-59 -2 -91 -30 ZM1616 1155 q16 -26 41 -32 q25 -6 47 12 l308 260 q22 20 27 50 q5 30 -9 58 l-12 20 q-16 26 -41 32 q-25 6 -47 -12 l-310 -260 q-20 -20 -25 -50 q-5 -30 9 -58 l12 -20 ZM1704 397 q-22 18 -47 13 q-25 -5 -41 -31 l-12 -20 q-14 -28 -9 -59 q5 -31 25 -49 l310 -259 q22 -18 47 -13 q25 5 41 33 l12 20 q14 25 9 56 q-5 31 -27 49 l-308 260 Z" /><glyph glyph-name="instagram1" unicode="&#xe6c0;" d="M1298 768 q-2 116 -80 194 q-78 78 -194 80 q-116 -2 -194 -80 q-78 -78 -80 -194 q2 -116 80 -194 q78 -78 194 -80 q116 2 194 80 q78 78 80 194 ZM1446 768 q-4 -180 -123 -299 q-119 -119 -299 -123 q-180 4 -299 123 q-119 119 -123 299 q4 180 123 299 q119 119 299 123 q180 -4 299 -123 q119 -119 123 -299 ZM1562 1208 q-2 -42 -29 -70 q-27 -28 -69 -28 q-42 0 -70 28 q-28 28 -28 70 q0 42 28 69 q28 27 70 27 q42 0 69 -27 q27 -27 29 -69 ZM1024 1444 q-100 0 -248 -2 q-148 -2 -238 -32 q-28 -12 -50 -26 q-22 -14 -44 -36 q-22 -22 -36 -44 q-14 -22 -26 -50 q-30 -90 -32 -238 q-2 -148 -2 -247 q0 -99 2 -248 q2 -149 32 -239 q12 -28 26 -50 q14 -22 36 -44 q22 -22 44 -36 q22 -14 50 -26 q90 -30 238 -32 q148 -2 247 -2 q99 0 248 2 q149 2 239 32 q28 12 50 26 q22 14 44 36 q22 22 36 44 q14 22 26 50 q30 90 32 239 q2 149 2 248 q0 99 -2 247 q-2 148 -32 238 q-12 28 -26 50 q-14 22 -36 44 q-22 22 -44 36 q-22 14 -50 26 q-90 30 -239 32 q-149 2 -247 2 ZM1846 768 q2 -170 -4 -340 q-4 -98 -33 -185 q-29 -87 -101 -159 q-72 -72 -159 -101 q-87 -29 -185 -33 q-170 -6 -340 -6 q-170 0 -340 6 q-98 4 -185 33 q-87 29 -159 101 q-72 72 -101 159 q-29 87 -33 185 q-6 170 -6 340 q0 170 6 340 q4 98 33 185 q29 87 101 159 q72 72 159 101 q87 29 185 33 q170 6 340 6 q170 0 340 -6 q98 -4 185 -33 q87 -29 159 -101 q72 -72 101 -159 q29 -87 33 -185 q6 -170 4 -340 Z" /><glyph glyph-name="pinterest" unicode="&#xe79a;" d="M1024 1612 q-358 -10 -596 -248 q-238 -238 -248 -596 q4 -272 151 -481 q147 -209 385 -305 q-6 52 -7 119 q-1 67 11 123 l98 420 q-2 0 -13 34 q-11 34 -11 92 q0 88 43 145 q43 57 109 59 q54 -2 80 -35 q26 -33 26 -83 q-2 -56 -26 -131 q-24 -75 -44 -151 q-12 -64 25 -107 q37 -43 101 -45 q114 2 188 107 q74 105 76 279 q-2 154 -98 247 q-96 93 -254 97 q-180 -6 -280 -114 q-100 -108 -100 -252 q0 -56 18 -108 q18 -52 44 -86 q10 -12 6 -24 l-24 -96 q-4 -22 -28 -10 q-80 40 -125 135 q-45 95 -45 191 q0 206 141 355 q141 149 415 155 q226 -4 371 -139 q145 -135 149 -347 q-2 -224 -122 -372 q-120 -148 -316 -154 q-64 2 -117 30 q-53 28 -75 68 l-52 -200 q-16 -58 -47 -118 q-31 -60 -59 -104 q120 -38 250 -38 q358 10 596 248 q238 238 248 596 q-10 358 -248 596 q-238 238 -596 248 Z" /><glyph glyph-name="aliwangwang" unicode="&#xe67b;" d="M1782 1038 q-142 208 -333 304 q-191 96 -343 96 q-108 6 -209 55 q-101 49 -121 65 l-4 2 q-34 20 -76 50 q-42 30 -100 48 q-54 14 -54 -8 q0 -22 10 -36 q34 -30 66 -76 q32 -46 -4 -150 q-26 -54 -98 -117 q-72 -63 -162 -155 q-234 -290 -185 -540.5 q49 -250.5 73 -266.5 q-2 -32 201 -236 q203 -204 641 -196 q430 66 590 271 q160 205 162 249 q24 34 45 228.5 q21 194.5 -99 412.5 ZM1208 497 q-28 -2 -55 17.5 q-27 19.5 -49 59.5 q-8 16 -6 32 q2 16 14 30 l38 40 q20 26 10 55 q-10 29 -42 35 l-12 2 q-22 4 -35 21 q-13 17 -9 39 q8 60 31 98 q23 38 55 42 q50 4 91 -59 q41 -63 54 -163 q13 -100 -12 -170.5 q-25 -70.5 -73 -78.5 ZM1606 572 q-26 -4 -50 15 q-24 19 -44 55 q-8 14 -7 31 q1 17 13 31 l28 30 q22 26 12 55 q-10 29 -44 35 q-22 4 -35 21 q-13 17 -9 39 q8 54 29 89 q21 35 51 39 q46 4 85 -55 q39 -59 51 -152 q12 -93 -12 -159 q-24 -66 -68 -74 Z" /><glyph glyph-name="xiala" unicode="&#xe605;" d="M534 923 q18 20 46 20 q28 0 48 -19 q20 -19 20 -46 q0 -27 -22 -47 l-256 -254 q-16 -20 -47 -18 q-31 2 -51 20 l-254 252 q-18 20 -18 47 q0 27 19 46 q19 19 46 19 q27 0 47 -20 l212 -208 l210 208 Z" /><glyph glyph-name="language" unicode="&#xebdf;" d="M1396 596 l288 0 q24 112 24 172 q0 60 -24 172 l-288 0 q12 -84 12 -172 q0 -88 -12 -172 ZM1244 124 q244 80 372 304 l-252 0 q-40 -160 -120 -304 ZM1224 596 q12 84 12 172 q0 88 -12 172 l-400 0 q-12 -84 -12 -172 q0 -88 12 -172 l400 0 ZM1024 88 q112 164 164 340 l-328 0 q52 -176 164 -340 ZM684 1108 q40 160 120 304 q-244 -80 -372 -304 l252 0 ZM432 428 q128 -224 372 -304 q-80 144 -120 304 l-252 0 ZM364 596 l288 0 q-12 84 -12 172 q0 88 12 172 l-288 0 q-24 -112 -24 -172 q0 -60 24 -172 ZM1024 1448 q-112 -164 -164 -340 l328 0 q-52 176 -164 340 ZM1616 1108 q-128 224 -372 304 q80 -144 120 -304 l252 0 ZM1024 1620 q352 0 602 -250 q250 -250 250 -602 q0 -352 -250 -602 q-250 -250 -602 -250 q-352 0 -602 250 q-250 250 -250 602 q0 352 250 602 q250 250 602 250 Z" /><glyph glyph-name="pdf" unicode="&#xe660;" d="M960 1078 q14 0 0 0 l12 44 q6 18 6 38 l0 18 q8 34 8 59 q0 25 -8 31 l0 10 l-8 8 l-2 -4 q-2 -4 -8 -4 q-28 -80 0 -200 ZM688 450 q-30 -14 -46 -28 q-48 -42 -80 -83 q-32 -41 -38 -63 q82 12 164 174 q12 0 0 0 q6 0 2 0 l-2 0 ZM1524 586 q-4 8 -41 21 q-37 13 -131 15 l-18 0 l0 -8 q48 -22 93 -34 q45 -12 79 -12 l28 0 l0 8 l-4 2 q-4 2 -6 8 ZM1662 1588 l-1276 0 q-76 -2 -128 -54 q-52 -52 -54 -128 l0 -1276 q2 -76 54 -128 q52 -52 128 -54 l1276 0 q76 2 128 54 q52 52 54 128 l0 1276 q-2 76 -54 128 q-52 52 -128 54 ZM1562 514 q-28 -16 -84 -18 q-56 -2 -129 13 q-73 15 -143 49 q-116 -12 -206 -29 q-90 -17 -158 -43 q-6 0 -9 -1 q-3 -1 -9 -9 q-164 -284 -274 -282 q-12 0 -21 2 q-9 2 -15 8 l-46 26 l0 10 q-6 14 -7 23 q-1 9 -1 23 q6 36 48 89 q42 53 124 101 q28 16 82 46 q40 68 92 164 q34 68 57 135 q23 67 43 129 q-28 78 -36 143 q-8 65 18 157 q6 28 25 50 q19 22 47 24 l18 0 q28 -4 56 -18 q44 -52 36 -144 q-8 -92 -36 -184 l0 -10 q26 -76 65 -136 q39 -60 79 -100 l38 -28 q18 -14 44 -28 q34 2 63 6 q29 4 55 4 q84 0 137 -15 q53 -15 73 -49 q12 -26 10 -54 q-8 -8 -16 -24 q-8 -16 -20 -30 ZM970 868 q-14 -48 -40 -102 l-52 -116 q-14 -28 -27 -51 q-13 -23 -27 -49 l18 0 q90 34 167 54 q77 20 133 28 q-24 14 -36 26 q-36 42 -72 95 q-36 53 -64 115 Z" /><glyph glyph-name="blog" unicode="&#xe6b4;" d="M1706 1622 l-1364 0 q-72 -2 -121 -51 q-49 -49 -51 -121 l0 -1364 q2 -72 51 -121 q49 -49 121 -51 l1364 0 q72 2 121 51 q49 49 51 121 l0 1364 q-2 72 -51 121 q-49 49 -121 51 ZM1366 1024 l0 -86 q0 -38 23 -61 q23 -23 62 -24 q39 -1 62 -24 q23 -23 23 -61 l0 -256 q-2 -112 -73 -183 q-71 -71 -183 -73 l-512 0 q-112 2 -183 73 q-71 71 -73 183 l0 598 q2 110 73 181 q71 71 183 75 l342 0 q110 -4 181 -75 q71 -71 75 -181 l0 -86 ZM854 938 l222 0 q38 2 61 25 q23 23 23 61 q0 38 -23 61 q-23 23 -61 25 l-222 0 q-40 -2 -63 -25 q-23 -23 -23 -61 q0 -38 23 -61 q23 -23 63 -25 ZM1194 682 l-340 0 q-40 0 -63 -23 q-23 -23 -23 -62 q0 -39 23 -62 q23 -23 63 -23 l340 0 q40 0 63 23 q23 23 23 62 q0 39 -23 62 q-23 23 -63 23 Z" /><glyph glyph-name="link" unicode="&#xe7ff;" d="M1064 1002 q-34 -35 -34 -82 q0 -47 34 -83 q50 -52 50 -119 q0 -67 -50 -121 l-342 -346 q-34 -36 -78 -50 q-44 -14 -91 -2 q-47 12 -80 45 q-33 33 -45 80 q-12 47 2 91 q14 44 52 76 l76 84 q34 36 34 82 q0 46 -35 81 q-35 35 -82 35 q-47 0 -83 -34 l-76 -86 q-112 -126 -109 -283 q3 -157 119 -277 q120 -116 277 -118 q157 -2 283 108 l344 344 q116 124 116 285 q0 161 -116 285 q-34 33 -82 35 q-48 2 -84 -30 ZM1702 1468 q-126 114 -285 114 q-159 0 -285 -114 l-342 -340 q-116 -124 -116 -284.5 q0 -160.5 116 -284.5 q36 -34 83 -34 q47 0 82 35 q35 35 35 81 q0 46 -34 82 q-50 52 -50 120 q0 68 50 120 l344 343 q52 48 120 48 q68 0 120 -48 q50 -52 50 -120 q0 -68 -50 -120 l-82 -81 q-34 -36 -35 -83 q-1 -47 34 -82 q35 -35 82 -35 q47 0 83 34 l82 82 q116 123 115 283 q-1 160 -117 284 Z" /><glyph glyph-name="star" unicode="&#xe627;" d="M1446 534 l100 -610 l-522 288 l-522 -288 l100 610 l-422 432 l582 90 l262 556 l262 -558 l582 -88 l-422 -432 Z" /><glyph glyph-name="weixin" unicode="&#xe600;" d="M1332 1112 q32 -2 64 -4 q-48 202 -231 329 q-183 127 -431 131 q-278 -6 -464 -162 q-186 -156 -194 -396 q2 -136 71 -246 q69 -110 193 -198 l-66 -196 l230 114 q60 -12 114 -22 q54 -10 116 -10 q30 0 60 2 q-20 66 -20 138 q6 220 162 367 q156 147 396 153 ZM974 1302 q44 0 73 -29 q29 -29 29 -72 q0 -43 -29 -72 q-29 -29 -72 -29 q-43 0 -72 29 q-29 29 -29 72 q0 43 29 72 q29 29 71 29 ZM516 1098 q-44 0 -72 29 q-28 29 -28 72 q0 43 28 72 q28 29 71 29 q43 0 72 -29 q29 -29 29 -72 q0 -43 -29 -72 q-29 -29 -71 -29 ZM1926 598 q-6 202 -167 336 q-161 134 -389 140 q-240 -6 -397 -140 q-157 -134 -163 -336 q6 -202 163 -337 q157 -135 397 -139 q48 0 97 10 q49 10 99 22 l180 -98 l-50 164 q102 74 165 170 q63 96 65 208 ZM1198 670 q-30 2 -51 22 q-21 20 -21 51 q0 31 21 51 q21 20 51 20 q30 0 51 -20 q21 -20 21 -51 q0 -31 -21 -51 q-21 -20 -51 -22 ZM1558 666 q-30 2 -50 22 q-20 20 -20 51 q0 31 20 51 q20 20 51 20 q31 0 51 -20 q20 -20 20 -51 q0 -31 -20 -51 q-20 -20 -52 -22 Z" /><glyph glyph-name="edit" unicode="&#xe60a;" d="M1000 836 l0 0 ZM724 48 l0 0 l-436 -80 l88 430 l348 -350 ZM1408 1430 l-156 -156 l348 -350 l156 158 l-348 348 ZM454 476 l348 -350 l720 720 l-348 350 l-720 -720 Z" /><glyph glyph-name="dianhua" unicode="&#xe60d;" d="M1490 -58 q-220 80 -432 190 q-212 110 -391 286 q-179 176 -300 384 q-121 208 -177 436 q-8 26 -5 60 q3 34 37 72 l210 210 q32 30 72 30 q40 0 68 -30 q60 -64 141 -162 q81 -98 141 -164 q28 -32 30 -72 q2 -40 -30 -68 q-30 -18 -70 -41 q-40 -23 -82 -63 q-28 -26 -42 -65 q-14 -39 -10 -79 l2 -16 q4 -26 20 -53 q16 -27 30 -43 q56 -66 146 -156 q90 -90 156 -146 q18 -14 44 -30 q26 -16 54 -20 l14 -2 q78 -8 146 52 q20 20 51 70 q31 50 56 81 q25 31 65 30 q40 -1 72 -31 q66 -58 164 -139 q98 -81 164 -139 q30 -30 29 -70 q-1 -40 -29 -70 l-210 -210 q-50 -46 -80 -45 q-30 1 -54 13 Z" /><glyph glyph-name="mail" unicode="&#xe602;" d="M1330 828 l514 496 q22 -22 22 -56 l0 -1000 q0 -32 -20 -54 l-516 614 ZM208 1326 q22 20 52 22 l1528 0 q30 -2 52 -22 l-816 -636 l-816 636 ZM202 214 q-20 22 -20 54 l0 1000 q0 34 22 56 l514 -496 l-516 -614 ZM1024 532 l214 206 l604 -528 q-22 -20 -54 -22 l-1528 0 q-32 2 -54 22 l604 528 l214 -206 Z" /><glyph glyph-name="earth" unicode="&#xe604;" d="M1620 1364 q120 -120 184 -273 q64 -153 64 -323 q0 -170 -64 -323 q-64 -153 -184 -273 q-120 -120 -273 -184 q-153 -64 -323 -64 q-170 0 -323 64 q-153 64 -273 184 q-120 120 -184 273 q-64 153 -64 323 q0 170 64 323 q64 153 184 273 q120 120 273 184 q153 64 323 64 q170 0 323 -64 q153 -64 273 -184 ZM1546 246 q78 78 129 173 q51 95 73 201 q-18 -26 -32 -25 q-14 1 -26 53 q-14 80 -75 72 q-61 -8 -117 14 q-62 -22 -140 8 q-78 30 -66 -76 q44 -36 119 3 q75 39 17 -59 q-54 -88 -129 -230 q-75 -142 -69 -242 q-8 -122 -99 -79 q-91 43 -151 101 q-26 98 -38 218 q-12 120 -90 172 q-94 0 -167 27 q-73 27 -109 127 q-20 80 18 163 q38 83 118 105 q110 56 181 -21 q71 -77 173 -97 q40 34 103 56 q63 22 75 60 q-50 14 9 50 q59 36 -17 64 q-56 -8 -81 -47 q-25 -39 1 -83 q-96 -6 -140 80 q-44 86 -136 48 q-22 -80 -93 -60 q-71 20 19 46 q24 20 -14 49 q-38 29 2 23 q34 4 85 26 q51 22 35 44 q48 18 92 -20 q44 -38 90 24 q30 56 0 68 q-30 12 -76 -16 q-20 30 26 75 q46 45 110 73 q40 16 70 14 q32 -34 71 -36 q39 -2 45 42 q-148 72 -318 72 q-122 0 -233 -37 q-111 -37 -207 -109 q26 -12 35 -26 q9 -14 -15 -34 q-22 -60 -85 -114 q-63 -54 -135 -48 q-70 -124 -90 -266 q56 -20 73 -48 q17 -28 3 -42 q-56 -54 -74 -134 q18 -114 70 -216 q52 -102 136 -186 q106 -106 240 -161 q134 -55 283 -55 q149 0 282 55 q133 55 239 161 Z" /><glyph glyph-name="factory" unicode="&#xe608;" d="M820 744 l112 48 q32 24 32 30 l0 702 q-2 14 -11 23 q-9 9 -21 9 l-116 0 q-14 0 -23 -9 q-9 -9 -11 -23 l6 -748 q0 -14 9 -23 q9 -9 23 -9 ZM1924 572 l-122 290 l-476 -296 l-118 292 l-482 -290 l-120 300 l-482 -316 l0 -544 q-2 -2 4 -14 q6 -12 30 -14 l1734 0 q6 0 18 5 q12 5 14 25 l0 562 ZM604 186 q0 -14 -9 -22 q-9 -8 -23 -10 l-236 0 q-14 2 -23 10 q-9 8 -9 22 l0 232 q0 14 9 23 q9 9 23 9 l236 0 q14 0 23 -9 q9 -9 9 -23 l0 -232 ZM1206 186 q0 -14 -10 -22 q-10 -8 -22 -10 l-238 0 q-14 2 -23 10 q-9 8 -9 22 l0 232 q0 14 9 23 q9 9 23 9 l238 0 q12 0 22 -9 q10 -9 10 -23 l0 -232 ZM1804 188 q0 -14 -9 -22 q-9 -8 -23 -10 l-236 0 q-14 2 -23 10 q-9 8 -9 22 l0 230 q0 14 9 23 q9 9 23 9 l236 0 q14 0 23 -9 q9 -9 9 -23 l0 -230 ZM1418 738 l116 80 q30 14 32 32 l-2 380 q-2 12 -11 21 q-9 9 -21 9 l-114 0 q-12 0 -21 -9 q-9 -9 -11 -21 l0 -460 q0 -14 9 -23 q9 -9 23 -9 Z" /><glyph glyph-name="mobile" unicode="&#xe601;" d="M1378 1588 l-722 0 q-74 0 -121 -41 q-47 -41 -49 -113 l0 -1332 q2 -72 49 -113 q47 -41 121 -41 l722 0 q76 0 129 41 q53 41 55 113 l0 1332 q-2 72 -55 113 q-53 41 -129 41 l0 0 ZM922 1484 l190 0 q16 0 27 -11 q11 -11 11 -27 q0 -16 -11 -27 q-11 -11 -27 -11 l-190 0 q-16 0 -27 11 q-11 11 -11 27 q0 16 11 27 q11 11 27 11 l0 0 ZM1016 8 q-34 0 -56 22 q-22 22 -22 56 q0 34 22 56 q22 22 56 22 q34 0 57 -22 q23 -22 23 -56 q0 -34 -23 -56 q-23 -22 -57 -22 l0 0 ZM640 1332 l768 0 l0 -1128 l-768 0 l0 1128 Z" /><glyph glyph-name="address" unicode="&#xe603;" d="M1024 -72 q-158 186 -298 376 q-140 190 -250 400 q-172 331 36 635 q160 222 423 259 q263 37 481 -131 q226 -186 234 -477 q2 -64 -15 -124 q-17 -60 -43 -116 q-108 -228 -256 -428 q-148 -200 -312 -394 ZM1022 714 q132 2 222 90 q90 88 96 223 q-2 132 -91 222 q-89 90 -227 96 q-130 -2 -220 -91 q-90 -89 -94 -219 q2 -137 91 -227 q89 -90 223 -94 Z" /><glyph glyph-name="tags" unicode="&#xe883;" d="M1816 1506 l-370 0 q-68 0 -145 -32 q-77 -32 -125 -80 l-620 -620 q-46 -48 -46 -111 q0 -63 46 -113 l462 -462 q48 -46 111 -46 q63 0 113 46 l620 620 q46 50 78 126 q32 76 34 144 l0 370 q-2 68 -47 112 q-45 44 -111 46 ZM1604 978 q-68 2 -112 47 q-44 45 -44 112 q0 67 44 112 q44 45 112 45 q68 0 112 -45 q44 -45 44 -112 q0 -67 -44 -112 q-44 -45 -112 -47 ZM324 626 l564 -564 q-46 -24 -97 -17 q-51 7 -89 43 l-462 462 q-46 50 -46 113 q0 63 46 111 l620 620 q48 48 125 80 q77 32 145 32 l-806 -806 q-16 -16 -16 -37 q0 -21 16 -37 Z" /><glyph glyph-name="home" unicode="&#xe607;" d="M1868 638 l-844 656 l-844 -656 l0 268 l844 654 l844 -654 l0 -268 ZM1656 662 l0 -632 l-422 0 l0 422 l-420 0 l0 -422 l-422 0 l0 632 l632 476 l632 -476 Z" /><glyph glyph-name="search" unicode="&#xe610;" d="M1760 170 l-288 288 q70 88 107 192 q37 104 37 218 q0 132 -49 252 q-49 120 -147 218 q-92 92 -212 143 q-120 51 -256 51 q-136 0 -249 -54 q-113 -54 -206 -147 q-93 -93 -143 -213 q-50 -120 -52 -256 q0 -130 49 -250 q49 -120 147 -218 q92 -94 212 -145 q120 -51 256 -51 q114 0 219 37 q105 37 193 107 l288 -288 l94 116 ZM598 502 q-70 70 -110 163 q-40 93 -40 197 q0 104 37 197 q37 93 113 163 q72 72 165 112 q93 40 196 40 q103 0 196 -38 q93 -38 165 -114 q70 -70 110 -163 q40 -93 41 -197 q1 -104 -37 -197 q-38 -93 -114 -163 q-72 -72 -165 -112 q-93 -40 -196 -40 q-103 0 -194 40 q-91 40 -167 112 Z" /><glyph glyph-name="arrow-btm" unicode="&#xe61b;" d="M954 346 l-702 702 q-30 32 -30 71 q0 39 30 69 q30 30 70 30 q40 0 70 -28 l632 -632 l632 632 q30 28 70 28 q40 0 70 -30 q30 -30 30 -69 q0 -39 -30 -71 l-702 -702 q-30 -28 -70 -28 q-40 0 -70 28 Z" /><glyph glyph-name="smallarrowright" unicode="&#xe609;" d="M856 1044 q-18 20 -18 45 q0 25 18 45 l6 6 q20 18 45 18 q25 0 45 -18 l326 -326 q18 -20 18 -45 q0 -25 -18 -45 l-326 -326 q-20 -18 -45 -18 q-25 0 -45 18 l-6 6 q-18 20 -19 45 q-1 25 19 45 l274 276 l-274 274 Z" /><glyph glyph-name="skype" unicode="&#xe60e;" d="M1486 578 q0 56 -22 104 q-22 48 -55 78 q-33 30 -83 56 q-50 26 -94 39 q-44 13 -100 27 l-170 38 q-16 4 -40 13 q-24 9 -34 19 q-10 10 -19 24 q-9 14 -9 34 q0 88 166 88 q48 0 87 -14 q39 -14 62 -32 q23 -18 43 -38 q20 -20 46 -34 q26 -14 54 -14 q54 0 87 37 q33 37 33 89 q0 62 -64 113 q-64 51 -162 77 q-98 26 -208 26 q-78 0 -151 -17 q-73 -17 -137 -53 q-64 -36 -102 -100 q-38 -64 -38 -148 q0 -68 22 -120 q22 -52 64 -87 q42 -35 91 -56 q49 -21 117 -37 l168 -40 q102 -26 128 -42 q36 -22 36 -68 q0 -46 -46 -75 q-46 -29 -120 -29 q-58 0 -104 19 q-46 19 -74 44 q-28 25 -52 51 q-24 26 -53 44 q-29 18 -61 18 q-58 0 -87 -34 q-29 -34 -29 -86 q0 -104 139 -179 q139 -75 333 -75 q84 0 160 21 q76 21 140 61 q64 40 101 107 q37 67 37 151 ZM1902 330 q0 -182 -129 -311 q-129 -129 -311 -129 q-148 0 -266 92 q-88 -18 -172 -18 q-164 0 -313 63 q-149 63 -257 171 q-108 108 -171 257 q-63 149 -63 313 q0 84 18 172 q-92 118 -92 266 q0 182 129 311 q129 129 311 129 q148 0 266 -92 q88 18 172 18 q164 0 313 -63 q149 -63 257 -171 q108 -108 171 -257 q63 -149 63 -313 q0 -84 -18 -172 q92 -118 92 -266 Z" /><glyph glyph-name="linkedin" unicode="&#xe620;" d="M228 1046 l340 0 l0 -1094 l-340 0 l0 1094 ZM398 1590 q82 -2 138 -58 q56 -56 56 -140 q0 -84 -56 -139 q-56 -55 -139 -55 q-83 0 -139 55 q-56 55 -56 139 q0 84 56 140 q56 56 140 58 ZM780 1046 l326 0 l0 -150 l4 0 q34 68 115 121 q81 53 207 55 q250 -4 331 -149 q81 -145 75 -371 l0 -600 l-340 0 l0 532 q6 102 -22 193 q-28 91 -154 97 q-128 -4 -167 -87 q-39 -83 -37 -195 l0 -540 l-338 0 l0 1094 Z" /><glyph glyph-name="user" unicode="&#xe60f;" d="M1024 1662 q52 0 103 -11 q51 -11 96 -31 q45 -20 80 -45 q35 -25 53 -49 q48 -58 69 -127 q21 -69 29 -131 q10 -72 10 -144 q12 -10 19 -23 q7 -13 12 -33 q5 -20 1 -48 q-4 -38 -15 -60 q-11 -22 -27 -35 q-16 -13 -34 -19 l-16 -58 q-10 -22 -22 -45 q-12 -23 -26 -35 q-34 -26 -55 -45 q-21 -19 -29 -63 q-4 -28 -3 -55 q1 -27 15 -55 q14 -28 42 -53 q28 -25 78 -45 q44 -18 97 -32 q53 -14 103 -33 q50 -19 88 -47 q38 -28 54 -76 q8 -28 13 -70 q5 -42 5 -85 q0 -43 -6 -80 q-6 -37 -20 -57 q-8 -12 -50 -25 q-42 -13 -104 -25 q-62 -12 -138 -20 q-76 -8 -152 -15 q-76 -7 -147 -10 q-71 -3 -123 -3 q-52 0 -120 3 q-68 3 -142 10 q-74 7 -146 15 q-72 8 -131 16 q-59 8 -100 17 q-41 9 -51 19 q-18 14 -28 87 q-10 73 8 189 q8 66 52 101 q44 35 102 56 q58 21 121 37 q63 16 111 46 q36 24 56 45 q20 21 29 42 q9 21 9 45 q0 24 -2 52 q-4 40 -29 65 q-25 25 -55 49 q-14 12 -25 35 q-11 23 -19 45 l-18 58 q-12 4 -24 13 q-12 9 -24 25 q-12 16 -22 46 q-10 30 -8 55 q2 25 10 44 q8 19 24 37 q-2 68 6 136 q8 56 26 122 q18 66 54 117 q36 51 78 82 q42 31 86 49 q44 18 88 24 q44 6 84 6 l0 0 ZM1024 1662 l0 0 Z" /><glyph glyph-name="youtube" unicode="&#xe87a;" d="M1410 768 q0 38 -30 54 l-514 322 q-32 20 -66 2 q-34 -18 -34 -56 l0 -644 q0 -38 34 -56 q16 -8 32 -8 q20 0 34 10 l514 322 q30 16 30 54 ZM1924 768 q0 -96 -1 -150 q-1 -54 -9 -137 q-8 -83 -22 -149 q-16 -74 -69 -124 q-53 -50 -125 -58 q-222 -24 -674 -24 q-452 0 -674 24 q-72 8 -125 58 q-53 50 -69 124 q-14 66 -22 149 q-8 83 -9 137 q-1 54 -1 150 q0 96 1 150 q1 54 9 137 q8 83 22 149 q16 74 69 124 q53 50 125 58 q222 24 674 24 q452 0 674 -24 q72 -8 125 -58 q53 -50 69 -124 q14 -66 22 -149 q8 -83 9 -137 q1 -54 1 -150 Z" /><glyph glyph-name="arrow-top" unicode="&#xe61a;" d="M954 1190 l-702 -702 q-30 -32 -30 -71 q0 -39 30 -69 q30 -30 70 -30 q40 0 70 28 l632 632 l632 -632 q30 -28 70 -28 q40 0 70 30 q30 30 30 69 q0 39 -30 71 l-702 702 q-30 28 -70 28 q-40 0 -70 -28 Z" /><glyph glyph-name="arrow-left" unicode="&#xe61c;" d="M602 857 q348 336 696 671 q80 60 143 -6 q63 -66 -1 -143 l-620 -600 l624 -618 q62 -80 -1 -146 q-63 -66 -141 -4 l-700 694 q-28 32 -29 76 q-1 44 29 76 Z" /><glyph glyph-name="arrow-right" unicode="&#xe61d;" d="M1446 677 q-348 -336 -696 -671 q-80 -60 -143 6 q-63 66 1 144 l620 599 l-624 618 q-62 80 1 146 q63 66 141 4 l700 -694 q28 -32 29 -76 q1 -44 -29 -76 Z" /><glyph glyph-name="google-plus" unicode="&#xe622;" d="M1924 844 l-150 0 l0 150 l-150 0 l0 -150 l-150 0 l0 -152 l150 0 l0 -148 l150 0 l0 148 l150 0 l0 152 ZM1366 844 l-566 0 l0 -226 l322 0 q-12 -78 -95 -170 q-83 -92 -265 -100 q-168 4 -279 117 q-111 113 -115 285 q4 170 115 283 q111 113 279 117 q92 -2 155 -32 q63 -30 99 -66 l174 166 q-86 80 -193 122 q-107 42 -235 44 q-272 -8 -452 -188 q-180 -180 -186 -450 q6 -272 186 -452 q180 -180 452 -186 q330 16 488 234 q158 218 116 502 Z" /><glyph glyph-name="facebook" unicode="&#xe619;" d="M1154 1192 q0 62 16 88 q22 38 96 38 l164 0 l0 288 l-276 0 q-42 2 -83 -5 q-41 -7 -89 -23 q-190 -74 -190 -344 l0 -174 l-178 0 l0 -289 l178 0 l0 -839 l362 0 l0 839 l248 0 l32 289 l-280 0 l0 132 Z" /><glyph glyph-name="twitter" unicode="&#xe61f;" d="M1334 1296 q102 0 166 -31 q64 -31 114 -81 q46 6 96 24 q50 18 86 38 l44 24 q-36 -104 -116 -166 q-16 -16 -38 -28 l0 0 q58 2 106 20 l94 34 l0 -2 q-24 -38 -55 -74 q-31 -36 -65 -62 l-54 -44 q2 -124 -18 -228 q-66 -298 -240 -496 q-174 -198 -452 -286 q-104 -32 -243 -40 q-139 -8 -257 20 q-114 26 -208 68 q-54 22 -100 50 l-32 20 q26 -2 55 -5 q29 -3 57 1 q28 4 53 5 q25 1 49 5 q120 26 212 78 l52 28 q26 16 44 34 q-60 0 -106 18 q-84 32 -138 88 q-54 56 -86 140 q30 -4 83 -6 q53 -2 75 12 q-32 2 -62 17 q-30 15 -54 29 q-70 44 -117 118 q-47 74 -49 186 l36 -18 q34 -14 76 -20 l22 -6 q14 -2 26 2 l-2 0 q-14 14 -32 27 q-18 13 -34 29 q-46 56 -74 138 q-28 82 -4 182 q14 52 38 92 l2 0 q4 -10 14 -19 q10 -9 18 -19 q46 -56 104 -100 q94 -74 194 -125 q100 -51 238 -85 q74 -18 160 -20 q-12 36 -10 83 q2 47 10 83 q50 170 202 238 q36 14 78 24 l42 6 Z" /><glyph glyph-name="team" unicode="&#xe63e;" d="M1456 388 q0 56 -16 108 q-16 52 -46 92 q-108 128 -264 128 l-190 0 q-108 0 -200 -64 q-112 -82 -128 -210 q-6 -72 -5 -150 q1 -78 -5 -156 q8 -2 21 -6 q13 -4 21 -6 q94 -24 185 -43 q91 -19 185 -19 q56 0 116 1 q60 1 116 9 q94 18 190 52 q6 0 8 7 q2 7 2 15 q8 64 9 125 q1 61 1 117 ZM770 736 q16 8 27 11 q11 3 27 11 q-48 46 -72 97 q-24 51 -24 113 l-220 0 q-32 0 -62 -6 q-30 -6 -54 -14 q-90 -34 -150 -111 q-60 -77 -62 -175 l0 -264 q0 -6 2 -9 q2 -3 8 -11 q128 -34 254 -52 q24 -2 53 -6 q29 -4 53 -6 l0 64 q-4 48 10 94 q24 96 78 161 q54 65 132 103 ZM1868 642 q0 32 -8 68 q-8 36 -24 68 q-92 190 -296 190 q-124 0 -99 0 q25 0 -101 0 q0 -128 -94 -210 q8 -2 14 -6 l6 -6 q82 -30 148 -94 q96 -110 96 -254 l0 -72 q38 6 73 9 q35 3 73 11 q48 8 101 24 q53 16 101 40 q6 0 8 6 q2 6 2 14 l0 212 ZM1034 726 q106 2 177 75 q71 73 67 178 q-4 105 -75 173 q-71 68 -169 70 q-106 -2 -178 -70 q-72 -68 -74 -174 q10 -104 79 -177 q69 -73 173 -75 ZM1340 1000 q24 -8 49 -14 q25 -6 57 -8 q106 4 177 76 q71 72 67 178 q-4 106 -75 173 q-71 67 -169 69 q-106 -2 -178 -69 q-72 -67 -76 -173 q64 -32 102 -92 q38 -60 46 -140 ZM602 978 q32 0 67 8 q35 8 59 24 q8 64 38 116 q30 52 78 84 l0 12 q-2 104 -73 172 q-71 68 -169 70 q-106 -2 -178 -70 q-72 -68 -74 -172 q2 -98 74 -169 q72 -71 178 -75 Z" /><glyph glyph-name="whatsapp" unicode="&#xe6c9;" d="M1024 1612 l0 0 q230 0 426 -116 q190 -112 302 -302 q116 -198 116 -426 q0 -228 -116 -426 q-112 -190 -302 -302 q-198 -116 -426 -116 q-126 0 -244 36 q-118 36 -220 104 l-324 -104 l104 314 q-78 108 -119 234 q-41 126 -41 260 q0 228 116 426 q112 190 302 302 q198 116 426 116 ZM782 1148 q-10 26 -21 33 q-11 7 -31 7 l-28 2 q-56 0 -86 -30 l-2 -2 q-34 -34 -50 -66 q-32 -58 -32 -132 q0 -74 42 -160 q22 -46 56 -90 l6 -10 q60 -88 130 -160 q134 -136 278 -196 q128 -52 202 -64 q46 -8 90 2 q50 10 98 42 q50 34 64 73 q14 39 18 77 q2 30 -3 39 q-5 9 -33 21 l-14 8 q-140 70 -166 78 q-36 14 -58 -18 l-12 -16 q-38 -52 -54 -70 q-10 -12 -26 -14 q-16 -2 -32 4 l-8 4 q-102 42 -188 116 q-74 68 -134 168 q-10 16 -4 30 q2 8 14 22 l38 42 q18 20 26 37 q8 17 -4 43 l-76 180 Z" /><glyph glyph-name="kefu2" unicode="&#xe686;" d="M1020 1436 q-136 0 -252 -67 q-116 -67 -184 -180 q-68 -113 -68 -247 q0 -134 68 -247 q68 -113 184 -179 q116 -66 252 -66 q136 0 252 66 q116 66 184 179 q68 113 68 247 q0 134 -68 247 q-68 113 -184 180 q-116 67 -252 67 l0 0 ZM440 754 l0 454 l-20 0 q78 170 238 274 q164 106 362 106 q198 0 362 -106 q160 -104 238 -274 l-18 0 l0 -454 q62 0 116 30 q54 30 85 83 q31 53 31 115 q0 62 -32 115 q-32 53 -88 83 q-48 140 -151 250 q-103 110 -241 170 q-144 64 -302 64 q-158 0 -300 -64 q-138 -60 -241 -170 q-103 -110 -153 -250 q-54 -30 -87 -83 q-33 -53 -33 -115 q0 -62 32 -115 q32 -53 85 -83 q53 -30 117 -30 l0 0 ZM1522 492 q-100 -92 -228 -142 q-130 -52 -273 -52 q-143 0 -275 52 q-126 50 -228 142 q-182 -92 -282 -244 q-108 -164 -108 -372 l1790 0 q0 210 -108 372 q-104 152 -288 244 l0 0 ZM1522 492 l0 0 Z" /><glyph glyph-name="kefu" unicode="&#xe615;" d="M1034 176 q82 0 150 49 q68 49 94 129 q2 4 -1 9 q-3 5 -8 8 q-5 3 -10 1 q-5 -2 -9 -6 l0 0 q-10 -18 -40 -36 q-56 -36 -152 -50 q-32 -4 -66 -4 q-66 0 -118 20 q-24 10 -36 20 q-6 8 -15 7 q-9 -1 -12 -10 q-3 -9 5 -15 q34 -56 92 -89 q58 -33 126 -33 ZM1854 1118 q0 0 -2 0 l-2 0 q-44 192 -166 346 q-122 154 -294 240 q-180 88 -380 88 q-208 0 -390 -94 q-178 -90 -299 -251 q-121 -161 -159 -361 q-58 -10 -96 -55 q-38 -45 -38 -103 l0 -320 q0 -66 47 -114 q47 -48 115 -48 q36 0 68 16 q32 16 56 44 q54 -140 157 -249 q103 -109 241 -169 q4 6 9 13 q5 7 9 7 q4 0 8 -4 q-30 22 -72 72 q-54 68 -92 146 q-50 100 -66 202 q-6 48 13 94 q19 46 55 78 q36 32 80 40 l198 40 q148 28 220 42 q132 24 188 146 q18 42 26 112 q2 6 6 10 q4 4 12 4 q8 0 12 -8 l4 4 q62 -90 106 -182 q64 -138 74 -259 q10 -121 4 -195 q-6 -92 -42 -164 q-38 -78 -116 -150 q-4 -4 -4 -10 q0 -6 6 -10 l4 -2 l4 0 l8 4 q126 68 216 178 q90 110 134 246 q38 -56 104 -70 q-34 -154 -134 -272 q-96 -114 -242 -183 q-146 -69 -320 -85 q-18 42 -54 66 q-36 24 -78 24 q-60 0 -102 -41 q-42 -41 -42 -98 q0 -57 42 -98 q42 -41 102 -41 q44 0 82 27 q38 27 52 69 q202 16 370 99 q168 83 276 219 q114 142 146 324 q46 18 74 59 q28 41 28 91 l0 324 q0 66 -49 114 q-49 48 -117 48 ZM1706 1026 q-52 142 -156 252 q-104 110 -242 170 q-142 64 -299 64 q-157 0 -299 -64 q-136 -60 -240 -169 q-104 -109 -156 -249 q-6 6 -16 16 l-2 0 q30 170 132 308 q102 138 250 216 q156 80 331 80 q175 0 329 -80 q150 -76 252 -213 q102 -137 132 -305 q-10 -12 -16 -26 Z" /></font>
</defs>
</svg>
